<svg  viewBox="0 0 435 96" fill="none" xmlns="http://www.w3.org/2000/svg">
<path d="M72.644 3.40377L95.7207 16.3732V92.639H72.644V82.0824C65.6432 90.8293 56.0064 95.1381 43.4741 95.1381C31.5036 95.1381 21.2617 90.6569 12.7051 81.5653C4.27826 72.4738 0 61.2278 0 47.9998C0 34.7718 4.27826 23.7413 12.7051 14.6497C21.3049 5.55816 31.5036 0.904663 43.4741 0.904663C56.0064 0.904663 65.6865 5.17037 72.644 13.9603V3.40377ZM47.7955 73.1632C54.9692 73.1632 60.8464 70.8364 65.5136 66.1829C70.3537 61.3571 72.6873 55.2817 72.6873 47.9998C72.6873 40.6749 70.3537 34.5995 65.5136 29.946C60.8464 25.1201 54.9692 22.7934 47.7955 22.7934C40.6219 22.7934 34.7447 25.1201 30.0775 29.946C25.4103 34.5995 23.0767 40.6749 23.0767 47.9998C23.0767 55.3248 25.4103 61.4002 30.0775 66.1829C34.7015 70.8364 40.6219 73.1632 47.7955 73.1632Z" fill="black"/>
<path d="M117.371 81.5653C108.426 72.4738 103.932 61.4002 103.932 47.9998C103.932 34.5995 108.426 23.5258 117.371 14.4343C126.49 5.34272 137.769 0.861572 151.209 0.861572C168.581 0.861572 183.965 9.78078 191.312 23.9136L171.433 35.5043C167.846 28.1793 160.154 23.5258 151.036 23.5258C137.25 23.5258 127.052 33.6946 127.052 47.9998C127.052 54.9801 129.385 60.84 133.836 65.4935C138.331 69.9747 144.035 72.2583 151.036 72.2583C160.327 72.2583 168.062 67.7772 171.606 60.4522L191.658 71.8705C183.793 85.9603 168.581 95.095 151.209 95.095C137.769 95.138 126.49 90.6569 117.371 81.5653Z" fill="black"/>
<path d="M435 37.6587V92.639H411.88V39.253C411.88 28.5241 406.349 22.2763 396.842 22.2763C386.254 22.2763 380.204 29.4289 380.204 42.4415V92.639H357.127V39.253C357.127 28.5241 351.596 22.2763 342.088 22.2763C331.89 22.2763 325.235 29.4289 325.235 42.4415V92.639H302.158V3.40377H325.235V12.8831C330.593 4.86876 338.847 0.904663 350.126 0.904663C361.06 0.904663 369.271 5.17037 374.456 13.7449C380.377 5.17037 389.322 0.904663 401.12 0.904663C421.733 0.904663 435 15.3391 435 37.6587Z" fill="black"/>
<path d="M244.12 0.0429617C217.284 -0.77571 195.288 20.4236 194.769 46.3625C194.207 73.5079 214.345 94.6641 240.923 95.9568C267.284 97.2494 289.755 76.5672 290.922 50.1112C292.132 23.4397 271.303 1.16325 244.12 0.0429617ZM277.396 25.1632C274.889 25.1632 272.383 25.034 269.92 25.2063C267.197 25.4218 264.475 25.9819 261.709 26.2404C261.061 26.3266 260.196 26.0681 259.721 25.6372C257.733 23.7413 255.443 22.6641 252.72 22.7072C251.51 22.7503 250.862 22.3194 250.257 21.3284C246.757 16.0286 242.781 11.1166 237.336 7.15248C257.301 4.61029 272.037 15.9855 277.396 25.1632ZM258.641 52.2656C254.276 54.0753 250.084 55.7988 245.892 57.4792C245.46 57.6516 244.596 57.4792 244.337 57.1345C240.923 52.5672 236.342 50.9299 230.637 51.7054C229.73 49.3787 228.779 47.0519 227.785 44.5097C231.07 43.0878 234.224 41.6229 237.422 40.2871C239.453 39.4254 241.528 38.779 243.515 37.9173C244.38 37.5726 244.855 37.7018 245.46 38.4343C247.275 40.6318 249.695 41.9245 252.504 41.9245C254.103 41.9245 254.751 42.6139 255.227 43.8203C256.35 46.4918 257.431 49.2063 258.641 52.2656ZM223.723 15.8132C224.155 9.91011 227.44 8.4882 232.409 11.7198C237.465 15.0376 241.139 19.7342 244.639 24.5169C244.942 24.9478 245.244 25.3787 245.33 25.508C244.596 27.4469 244.034 29.0843 243.386 30.7216C243.256 31.0232 242.997 31.411 242.651 31.5403C237.293 33.7808 231.891 35.9783 226.489 38.1758C226.402 38.2189 226.316 38.1758 225.884 38.1758C225.279 35.0735 224.414 31.9711 224.155 28.8257C223.766 24.5169 223.421 20.122 223.723 15.8132ZM217.111 16.3302C216.031 24.9047 217.932 33.0053 220.007 41.2351C213.697 44.9406 207.388 48.6893 202.245 54.1184C199.393 42.657 204.925 24.8616 217.111 16.3302ZM207.172 64.5026C207.085 64.5026 206.956 64.4595 206.869 64.4595C204.104 63.8993 203.585 62.9083 205.357 60.7108C206.869 58.8149 208.555 56.9622 210.456 55.4972C214.173 52.6103 218.105 49.9819 222.167 47.1381C223.204 49.7234 224.069 51.8347 224.89 54.0322C225.02 54.3338 224.89 54.8509 224.717 55.1525C221.951 59.1166 221.908 59.1166 220.828 64.2871C216.204 64.8473 211.709 65.2351 207.172 64.5026ZM208.814 71.3966C211.753 71.3966 214.648 71.4828 217.543 71.3536C219.099 71.3105 220.784 70.4918 222.124 70.9227C223.377 71.3105 224.155 72.9909 225.279 73.9388C228.477 76.6534 232.15 77.7306 236.342 76.7826C236.774 76.6965 237.552 76.8688 237.768 77.1704C241.052 81.5654 244.596 85.6588 249.177 89.0627C236.601 92.9837 213.87 82.9442 208.814 71.3966ZM262.789 80.2297C262.616 81.7378 262.055 83.2458 261.363 84.6246C260.412 86.5205 259.116 86.9514 257.085 86.3913C254.362 85.6588 252.202 84.0214 250.3 82.0825C247.837 79.5403 245.59 76.8257 243.213 74.1974C242.651 73.5941 242.651 73.1202 243.213 72.4738C244.985 70.4056 246.065 68.0358 246.281 65.2781C246.324 64.8904 246.584 64.2871 246.886 64.1579C251.337 62.3051 255.788 60.4954 260.499 58.5564C262.357 65.8814 263.697 72.9478 262.789 80.2297ZM261.19 41.6659C260.196 39.6408 259.851 38.0035 261.406 36.2369C261.622 35.9783 261.839 35.5905 261.839 35.2458C261.968 33.1345 263.308 32.6606 265.123 32.4451C269.488 31.885 273.809 31.2817 278.174 32.1004C279.47 32.3589 281.328 32.9191 281.674 33.8239C282.02 34.7288 281.112 36.5385 280.248 37.4433C278.347 39.5115 276.315 41.4505 274.068 43.0878C270.914 45.4146 267.543 47.4397 264.129 49.6803C263.092 46.7934 262.4 44.122 261.19 41.6659ZM269.185 80.2728C270.179 71.6552 268.407 63.5546 266.246 55.411C272.729 51.7916 278.952 47.9137 284.224 42.6139C288.416 51.8778 279.557 74.1112 269.185 80.2728Z" fill="#DC1F26"/>
</svg>
