<svg  viewBox="0 0 20 20" xmlns="http://www.w3.org/2000/svg">
<g clip-path="url(#clip0)">
<path d="M15.625 20H4.375C3.34167 20 2.5 19.1592 2.5 18.125V9.375C2.5 8.34083 3.34167 7.5 4.375 7.5H15.625C16.6583 7.5 17.5 8.34083 17.5 9.375V18.125C17.5 19.1592 16.6583 20 15.625 20ZM4.375 8.75C4.03083 8.75 3.75 9.03 3.75 9.375V18.125C3.75 18.47 4.03083 18.75 4.375 18.75H15.625C15.9692 18.75 16.25 18.47 16.25 18.125V9.375C16.25 9.03 15.9692 8.75 15.625 8.75H4.375Z" />
<path d="M14.375 8.74999C14.03 8.74999 13.75 8.46999 13.75 8.12499V4.99999C13.75 2.93249 12.0675 1.24999 10 1.24999C7.9325 1.24999 6.25 2.93249 6.25 4.99999V8.12499C6.25 8.46999 5.97 8.74999 5.625 8.74999C5.28 8.74999 5 8.46999 5 8.12499V4.99999C5 2.24249 7.2425 -7.62939e-06 10 -7.62939e-06C12.7575 -7.62939e-06 15 2.24249 15 4.99999V8.12499C15 8.46999 14.72 8.74999 14.375 8.74999Z" />
<path d="M9.99991 14.1668C9.08075 14.1668 8.33325 13.4193 8.33325 12.5001C8.33325 11.5809 9.08075 10.8334 9.99991 10.8334C10.9191 10.8334 11.6666 11.5809 11.6666 12.5001C11.6666 13.4193 10.9191 14.1668 9.99991 14.1668ZM9.99991 12.0834C9.77075 12.0834 9.58325 12.2701 9.58325 12.5001C9.58325 12.7301 9.77075 12.9168 9.99991 12.9168C10.2291 12.9168 10.4166 12.7301 10.4166 12.5001C10.4166 12.2701 10.2291 12.0834 9.99991 12.0834Z" />
<path d="M10 16.6666C9.655 16.6666 9.375 16.3867 9.375 16.0417V13.75C9.375 13.405 9.655 13.125 10 13.125C10.345 13.125 10.625 13.405 10.625 13.75V16.0417C10.625 16.3867 10.345 16.6666 10 16.6666Z" />
</g>
<defs>
<clipPath id="clip0">
<rect width="20" height="20" fill="white"/>
</clipPath>
</defs>
</svg>
