<svg  viewBox="0 0 20 20"  xmlns="http://www.w3.org/2000/svg">
<path d="M9.99998 0C4.47715 0 0 4.47715 0 9.99998C0 15.5228 4.47715 20 9.99998 20C15.5228 20 20 15.5228 20 9.99998C19.9941 4.47961 15.5204 0.00590122 9.99998 0ZM9.99998 18.5714C5.26611 18.5714 1.42856 14.7338 1.42856 9.99998C1.42856 5.26611 5.26611 1.42856 9.99998 1.42856C14.7338 1.42856 18.5714 5.26611 18.5714 9.99998C18.5663 14.7318 14.7318 18.5663 9.99998 18.5714Z" />
<path d="M15.4873 5.92365C15.2105 5.65629 14.7717 5.65629 14.4949 5.92365L7.85706 12.5615L5.5049 10.2093C5.23085 9.92556 4.77863 9.91774 4.49491 10.1918C4.21115 10.4658 4.20332 10.9181 4.47738 11.2018C4.48311 11.2077 4.48897 11.2136 4.49491 11.2193L7.35207 14.0765C7.63097 14.3553 8.08315 14.3553 8.36205 14.0765L15.5049 6.93359C15.779 6.64987 15.7711 6.1977 15.4873 5.92365Z" />
</svg>
