<svg  viewBox="0 0 20 20"  xmlns="http://www.w3.org/2000/svg">
<g clip-path="url(#clip0)">
<path d="M18.125 17.5001H1.87501C0.841081 17.5001 0 16.659 0 15.6251V12.5001C0 12.1546 0.279533 11.875 0.625004 11.875C1.65893 11.875 2.50002 11.034 2.50002 10C2.50002 8.96611 1.65893 8.12502 0.625004 8.12502C0.279533 8.12507 0 7.84553 0 7.50006V4.37504C0 3.34111 0.841081 2.50003 1.87501 2.50003H18.125C19.159 2.50003 20 3.34111 20 4.37504V7.50006C20 7.84553 19.7205 8.12507 19.375 8.12507C18.3411 8.12507 17.5 8.96615 17.5 10.0001C17.5 11.034 18.3411 11.8751 19.375 11.8751C19.7205 11.8751 20 12.1546 20 12.5001V15.6251C20 16.659 19.159 17.5001 18.125 17.5001ZM1.25001 13.0622V15.6251C1.25001 15.9699 1.53017 16.2501 1.87501 16.2501H18.125C18.4699 16.2501 18.75 15.9699 18.75 15.6251V13.0622C17.3255 12.7717 16.25 11.5095 16.25 10C16.25 8.49061 17.3254 7.22844 18.75 6.93788V4.37504C18.75 4.0302 18.4699 3.75004 18.125 3.75004H1.87501C1.53017 3.75004 1.25001 4.0302 1.25001 4.37504V6.93793C2.67456 7.22844 3.75002 8.49065 3.75002 10.0001C3.75002 11.5095 2.67456 12.7717 1.25001 13.0622Z" />
<path d="M7.54016 14.7719L11.2888 4.77544L12.4592 5.21434L8.71056 15.2108L7.54016 14.7719Z" />
<path d="M7.04335 10.2105C6.00942 10.2105 5.16833 9.36944 5.16833 8.33551C5.16833 7.30159 6.00942 6.46051 7.04335 6.46051C8.07728 6.46051 8.91836 7.30159 8.91836 8.33551C8.91836 9.36944 8.07728 10.2105 7.04335 10.2105ZM7.04335 7.71051C6.69851 7.71051 6.41834 7.99068 6.41834 8.33551C6.41834 8.68035 6.69851 8.96052 7.04335 8.96052C7.38819 8.96052 7.66835 8.68035 7.66835 8.33551C7.66835 7.99068 7.38819 7.71051 7.04335 7.71051Z" />
<path d="M13.5038 14.0868C12.4699 14.0868 11.6288 13.2457 11.6288 12.2117C11.6288 11.1778 12.4699 10.3367 13.5038 10.3367C14.5377 10.3367 15.3788 11.1778 15.3788 12.2117C15.3788 13.2457 14.5377 14.0868 13.5038 14.0868ZM13.5038 11.5867C13.159 11.5867 12.8788 11.8669 12.8788 12.2117C12.8788 12.5566 13.159 12.8368 13.5038 12.8368C13.8486 12.8368 14.1288 12.5566 14.1288 12.2117C14.1288 11.8669 13.8486 11.5867 13.5038 11.5867Z" />
</g>
<defs>
<clipPath id="clip0">
<rect width="20" height="20" fill="white"/>
</clipPath>
</defs>
</svg>
