<svg  viewBox="0 0 20 20" >
<g clip-path="url(#clip0)">
<path d="M19.4848 6.29402C18.7994 5.60863 17.6842 5.60867 16.9987 6.29418C16.7878 6.50523 15.4415 7.85262 15.2358 8.05848V3.41508C15.2358 2.94555 15.053 2.50414 14.721 2.17215L13.0637 0.514844C12.7317 0.182813 12.2903 0 11.8208 0H1.75928C0.79002 0 0.00146484 0.788555 0.00146484 1.75781V18.2422C0.00146484 19.2114 0.79002 20 1.75928 20H13.478C14.4473 20 15.2358 19.2114 15.2358 18.2422V13.0325L19.4847 8.77996C20.1717 8.09301 20.1719 6.98105 19.4848 6.29402ZM11.7203 1.17188C11.831 1.17188 12.0443 1.1527 12.2351 1.34348L13.8924 3.00078C14.0783 3.18676 14.064 3.39055 14.064 3.51562H11.7203V1.17188ZM14.064 18.2422C14.064 18.5653 13.8012 18.8281 13.478 18.8281H1.75928C1.43619 18.8281 1.17334 18.5653 1.17334 18.2422V1.75781C1.17334 1.43473 1.43619 1.17188 1.75928 1.17188H10.5483V4.10156C10.5483 4.42516 10.8107 4.6875 11.1343 4.6875H14.064V9.23137C14.064 9.23137 12.3353 10.9615 12.3352 10.9616L11.507 11.7898C11.4427 11.8541 11.3942 11.9326 11.3654 12.0189L10.5367 14.5048C10.4665 14.7154 10.5213 14.9475 10.6783 15.1044C10.8354 15.2616 11.0677 15.3161 11.2779 15.246L13.7638 14.4173C13.8501 14.3886 13.9286 14.3401 13.9929 14.2758L14.064 14.2047V18.2422ZM12.7499 12.2042L13.5785 13.0328L13.262 13.3493L12.0191 13.7636L12.4334 12.5207L12.7499 12.2042ZM14.407 12.204L13.5784 11.3754C14.0196 10.9338 15.9794 8.97234 16.395 8.55637L17.2236 9.385L14.407 12.204ZM18.656 7.95148L18.0519 8.55602L17.2233 7.72738L17.8275 7.12266C18.0561 6.89418 18.4278 6.89422 18.6562 7.12266C18.8846 7.35117 18.8858 7.7216 18.656 7.95148Z" />
<path d="M11.1335 5.85938H2.93042C2.60683 5.85938 2.34448 6.12172 2.34448 6.44531C2.34448 6.76891 2.60683 7.03125 2.93042 7.03125H11.1335C11.4571 7.03125 11.7195 6.76891 11.7195 6.44531C11.7195 6.12172 11.4571 5.85938 11.1335 5.85938Z" />
<path d="M8.78979 8.20312H2.93042C2.60683 8.20312 2.34448 8.46547 2.34448 8.78906C2.34448 9.11266 2.60683 9.375 2.93042 9.375H8.78979C9.11339 9.375 9.37573 9.11266 9.37573 8.78906C9.37573 8.46547 9.11339 8.20312 8.78979 8.20312Z" />
<path d="M8.78979 10.5469H2.93042C2.60683 10.5469 2.34448 10.8092 2.34448 11.1328C2.34448 11.4564 2.60683 11.7188 2.93042 11.7188H8.78979C9.11339 11.7188 9.37573 11.4564 9.37573 11.1328C9.37573 10.8092 9.11339 10.5469 8.78979 10.5469Z" />
<path d="M8.78979 12.8906H2.93042C2.60683 12.8906 2.34448 13.153 2.34448 13.4766C2.34448 13.8002 2.60683 14.0625 2.93042 14.0625H8.78979C9.11339 14.0625 9.37573 13.8002 9.37573 13.4766C9.37573 13.153 9.11339 12.8906 8.78979 12.8906Z" />
<path d="M11.1334 16.4844H7.6178C7.2942 16.4844 7.03186 16.7467 7.03186 17.0703C7.03186 17.3939 7.2942 17.6562 7.6178 17.6562H11.1334C11.457 17.6562 11.7194 17.3939 11.7194 17.0703C11.7194 16.7467 11.457 16.4844 11.1334 16.4844Z" />
</g>
<defs>
<clipPath id="clip0">
<rect width="20" height="20" fill="white"/>
</clipPath>
</defs>
</svg>
