<svg id="svg" version="1.1" xmlns="http://www.w3.org/2000/svg" xmlns:xlink="http://www.w3.org/1999/xlink" width="400" height="400" viewBox="0, 0, 400,400"><g id="svgg"><path id="path0" d="M34.497 341.900 L 34.600 364.200 200.100 364.300 L 365.600 364.401 365.600 342.000 L 365.600 319.600 199.997 319.600 L 34.393 319.600 34.497 341.900 " stroke="none" fill="#04844c" fill-rule="evenodd"></path><path id="path1" d="M79.834 40.100 C 79.680 42.355,79.385 46.540,79.179 49.400 C 78.169 63.442,74.477 117.624,71.603 160.600 C 67.313 224.737,65.348 253.613,64.394 266.563 C 63.957 272.482,63.600 277.657,63.600 278.063 C 63.600 278.767,64.336 278.800,80.152 278.800 L 96.704 278.800 96.959 274.700 C 97.100 272.445,97.395 266.640,97.616 261.800 C 97.837 256.960,98.192 249.490,98.404 245.200 C 98.616 240.910,98.791 236.905,98.794 236.300 L 98.800 235.200 104.800 235.200 L 110.800 235.200 110.807 237.500 C 110.811 238.765,111.168 248.170,111.600 258.400 C 112.032 268.630,112.389 277.405,112.393 277.900 L 112.400 278.800 128.800 278.800 C 145.093 278.800,145.200 278.795,145.200 277.976 C 145.200 277.120,143.008 248.444,141.609 231.000 C 141.168 225.500,139.094 198.230,136.999 170.400 C 134.904 142.570,131.752 101.030,129.995 78.088 C 128.238 55.147,126.800 36.292,126.800 36.188 C 126.800 36.085,116.296 36.000,103.457 36.000 L 80.114 36.000 79.834 40.100 M193.000 36.375 C 177.506 38.943,167.274 50.582,164.033 69.326 C 162.148 80.230,161.390 109.590,162.715 120.400 C 165.413 142.421,167.960 147.759,187.065 171.440 C 206.130 195.072,206.384 195.698,206.396 219.048 C 206.403 233.678,204.451 239.472,199.555 239.343 C 194.509 239.211,193.642 233.980,193.613 203.500 L 193.600 190.400 178.200 190.400 L 162.800 190.400 162.809 199.100 C 162.848 236.152,165.336 251.980,172.875 263.144 C 190.451 289.168,227.659 281.177,235.223 249.754 C 239.346 232.623,238.870 189.324,234.362 171.402 C 231.129 158.553,223.239 146.248,206.021 127.200 C 194.772 114.757,193.678 112.106,193.319 96.453 C 192.983 81.751,194.738 75.200,199.012 75.200 C 203.560 75.200,204.400 78.790,204.400 98.229 L 204.400 111.200 219.800 111.200 L 235.200 111.200 235.196 99.700 C 235.187 67.876,232.675 56.484,223.481 46.556 C 216.262 38.761,203.775 34.590,193.000 36.375 M263.299 157.300 L 263.400 278.600 279.500 278.705 L 295.600 278.809 295.600 229.848 L 295.600 180.888 302.900 180.696 C 323.430 180.158,330.519 171.057,332.425 142.789 C 333.008 134.152,332.705 79.095,332.044 73.400 C 329.707 53.278,324.576 43.577,313.800 38.907 C 307.955 36.374,303.847 36.002,281.699 36.001 L 263.199 36.000 263.299 157.300 M301.097 78.462 C 305.469 80.540,305.716 81.936,305.905 105.600 C 306.136 134.437,305.321 138.473,299.078 139.409 C 295.434 139.956,295.813 143.450,295.698 108.249 L 295.595 77.108 297.498 77.382 C 298.544 77.532,300.164 78.018,301.097 78.462 M105.605 108.648 C 106.031 118.082,106.573 130.210,106.810 135.600 C 107.046 140.990,107.496 149.990,107.810 155.600 C 109.422 184.448,109.730 191.084,109.484 191.724 C 109.245 192.349,108.653 192.411,103.908 192.312 L 98.600 192.200 98.725 187.400 C 98.927 179.658,100.658 149.863,102.594 120.800 C 103.583 105.950,104.394 93.185,104.396 92.433 C 104.398 91.682,104.497 91.163,104.615 91.281 C 104.733 91.399,105.178 99.214,105.605 108.648 " stroke="none" fill="#ec1c24" fill-rule="evenodd"></path><path id="path2" d="M0.000 200.000 L 0.000 400.000 200.000 400.000 L 400.000 400.000 400.000 200.000 L 400.000 0.000 200.000 0.000 L 0.000 0.000 0.000 200.000 M127.002 36.100 C 127.099 36.375,128.628 56.040,130.399 79.800 C 133.759 124.874,135.451 147.075,136.786 163.600 C 138.019 178.849,139.753 201.536,142.580 239.400 C 144.009 258.540,145.288 275.325,145.421 276.700 L 145.664 279.200 129.055 279.200 C 119.921 279.200,112.350 279.043,112.232 278.851 C 112.113 278.659,111.642 268.984,111.184 257.351 C 110.727 245.718,110.279 235.975,110.189 235.700 C 110.049 235.274,99.265 234.882,99.180 235.300 C 99.168 235.355,98.724 245.021,98.191 256.781 C 97.659 268.540,97.134 278.395,97.024 278.681 C 96.794 279.282,63.811 279.464,63.441 278.866 C 63.327 278.683,63.766 270.718,64.415 261.166 C 68.018 208.151,69.280 189.780,69.824 182.400 C 70.909 167.687,72.715 141.103,76.208 88.400 C 78.097 59.910,79.717 36.375,79.808 36.100 C 79.939 35.708,85.015 35.600,103.400 35.600 C 121.779 35.600,126.863 35.708,127.002 36.100 M207.793 36.798 C 217.484 39.277,226.824 47.558,230.798 57.194 C 234.060 65.105,235.600 79.369,235.600 101.671 L 235.600 111.600 220.000 111.600 L 204.400 111.600 204.385 101.500 C 204.354 80.544,203.366 75.600,199.206 75.600 C 192.083 75.600,190.726 104.878,197.343 115.800 C 199.501 119.362,199.461 119.314,211.027 132.432 C 222.829 145.820,231.105 158.848,233.748 168.200 C 239.165 187.369,240.024 230.923,235.361 250.000 C 228.151 279.501,193.905 289.180,175.520 266.912 C 165.648 254.955,163.333 244.235,162.911 208.500 L 162.697 190.400 178.348 190.400 L 194.000 190.400 194.000 207.931 C 194.000 235.139,194.780 239.200,200.005 239.200 C 204.909 239.200,207.000 229.924,206.069 212.294 C 205.162 195.100,203.667 191.695,189.790 175.200 C 171.979 154.028,167.701 146.873,164.652 133.153 C 160.800 115.816,160.703 83.485,164.450 66.028 C 169.274 43.552,187.127 31.513,207.793 36.798 M303.723 36.014 C 323.471 38.859,331.031 50.193,332.797 79.600 C 333.306 88.081,333.308 135.603,332.800 143.200 C 330.952 170.821,323.404 180.367,302.800 181.138 L 295.800 181.400 295.698 230.300 L 295.597 279.200 279.398 279.200 L 263.200 279.200 263.200 157.400 L 263.200 35.600 282.023 35.600 C 292.892 35.600,302.062 35.775,303.723 36.014 M295.803 78.050 C 295.688 78.352,295.640 92.190,295.697 108.800 L 295.800 139.000 297.200 139.133 C 301.080 139.502,303.542 137.322,304.668 132.523 C 305.329 129.701,305.400 127.338,305.400 108.000 C 305.400 84.965,305.268 83.304,303.203 80.404 C 301.919 78.601,296.278 76.807,295.803 78.050 M104.077 101.229 C 103.814 105.503,102.977 118.450,102.216 130.000 C 100.957 149.094,99.668 171.439,98.966 186.300 L 98.697 192.000 104.055 192.000 L 109.413 192.000 108.328 171.500 C 107.732 160.225,106.687 138.220,106.007 122.600 C 105.327 106.980,104.722 94.033,104.662 93.829 C 104.602 93.626,104.339 96.956,104.077 101.229 M366.000 341.757 C 366.000 361.957,365.934 364.340,365.367 364.557 C 364.540 364.875,35.460 364.875,34.633 364.557 C 34.066 364.340,34.000 361.957,34.000 341.757 L 34.000 319.200 200.000 319.200 L 366.000 319.200 366.000 341.757 " stroke="none" fill="#fcfbfb" fill-rule="evenodd"></path><path id="path3" d="M34.000 341.757 C 34.000 361.957,34.066 364.340,34.633 364.557 C 34.981 364.691,109.546 364.755,200.333 364.701 L 365.400 364.601 200.000 364.401 L 34.600 364.200 34.497 341.900 L 34.393 319.600 199.993 319.600 L 365.593 319.600 365.700 342.100 L 365.807 364.600 365.903 341.900 L 366.000 319.200 200.000 319.200 L 34.000 319.200 34.000 341.757 " stroke="none" fill="#c4e4d4" fill-rule="evenodd"></path><path id="path4" d="M79.865 35.897 C 79.763 36.064,79.587 38.450,79.474 41.200 L 79.269 46.200 79.684 41.100 L 80.099 36.000 103.427 36.000 L 126.754 36.000 126.921 37.700 L 127.088 39.400 127.044 37.600 L 127.000 35.800 103.526 35.697 C 90.615 35.640,79.968 35.730,79.865 35.897 M193.000 36.003 C 188.624 36.667,181.200 39.315,181.200 40.212 C 181.200 40.322,182.254 39.879,183.543 39.229 C 190.680 35.626,201.982 35.100,210.341 37.981 C 212.188 38.618,213.542 38.985,213.349 38.796 C 211.223 36.712,199.202 35.062,193.000 36.003 M265.200 35.868 C 270.040 36.125,304.878 36.182,303.200 35.930 C 302.210 35.781,292.760 35.680,282.200 35.705 C 271.640 35.731,263.990 35.804,265.200 35.868 M305.700 36.676 C 306.085 36.776,306.715 36.776,307.100 36.676 C 307.485 36.575,307.170 36.493,306.400 36.493 C 305.630 36.493,305.315 36.575,305.700 36.676 M309.800 37.455 C 310.900 37.769,312.570 38.380,313.511 38.813 C 315.769 39.852,316.228 39.790,314.200 38.721 C 312.656 37.906,309.021 36.771,308.200 36.846 C 307.980 36.867,308.700 37.140,309.800 37.455 M316.000 39.745 C 316.000 39.849,316.675 40.347,317.500 40.850 C 318.325 41.354,320.005 42.674,321.233 43.783 C 323.302 45.652,323.286 45.624,321.007 43.400 C 318.840 41.285,316.000 39.211,316.000 39.745 M127.324 42.200 C 127.326 43.520,127.401 44.012,127.490 43.293 C 127.579 42.574,127.577 41.494,127.486 40.893 C 127.395 40.292,127.322 40.880,127.324 42.200 M215.600 40.124 C 215.600 40.217,216.365 40.798,217.300 41.415 C 218.235 42.032,218.789 42.280,218.531 41.968 C 218.034 41.367,215.600 39.836,215.600 40.124 M174.938 45.300 C 172.444 47.909,169.916 51.414,168.456 54.284 C 167.066 57.019,167.487 56.819,169.055 54.000 C 171.209 50.128,172.693 48.074,175.340 45.300 C 176.653 43.925,177.637 42.800,177.527 42.800 C 177.417 42.800,176.252 43.925,174.938 45.300 M223.200 46.200 C 223.946 46.970,224.647 47.600,224.757 47.600 C 224.867 47.600,224.346 46.970,223.600 46.200 C 222.854 45.430,222.153 44.800,222.043 44.800 C 221.933 44.800,222.454 45.430,223.200 46.200 M127.720 47.200 C 127.720 48.410,127.795 48.905,127.887 48.300 C 127.978 47.695,127.978 46.705,127.887 46.100 C 127.795 45.495,127.720 45.990,127.720 47.200 M78.934 49.600 C 78.934 51.250,79.005 51.925,79.091 51.100 C 79.178 50.275,79.178 48.925,79.091 48.100 C 79.005 47.275,78.934 47.950,78.934 49.600 M226.335 50.000 C 227.252 51.210,228.716 53.640,229.589 55.400 C 231.291 58.831,231.703 59.241,230.404 56.209 C 229.433 53.943,226.408 49.221,225.402 48.400 C 224.998 48.070,225.418 48.790,226.335 50.000 M128.120 52.400 C 128.120 53.610,128.195 54.105,128.287 53.500 C 128.378 52.895,128.378 51.905,128.287 51.300 C 128.195 50.695,128.120 51.190,128.120 52.400 M78.524 55.000 C 78.526 56.320,78.601 56.812,78.690 56.093 C 78.779 55.374,78.777 54.294,78.686 53.693 C 78.595 53.092,78.522 53.680,78.524 55.000 M128.520 58.000 C 128.520 59.210,128.595 59.705,128.687 59.100 C 128.778 58.495,128.778 57.505,128.687 56.900 C 128.595 56.295,128.520 56.790,128.520 58.000 M329.240 57.636 C 329.218 57.766,329.555 59.260,329.989 60.957 C 331.012 64.958,331.941 71.740,332.355 78.230 C 332.603 82.125,332.698 82.695,332.742 80.542 C 332.870 74.261,329.812 54.259,329.240 57.636 M78.124 61.000 C 78.126 62.320,78.201 62.812,78.290 62.093 C 78.379 61.374,78.377 60.294,78.286 59.693 C 78.195 59.092,78.122 59.680,78.124 61.000 M128.914 63.000 C 128.917 64.100,128.995 64.503,129.087 63.895 C 129.179 63.286,129.177 62.386,129.082 61.895 C 128.987 61.403,128.911 61.900,128.914 63.000 M77.724 67.000 C 77.726 68.320,77.801 68.812,77.890 68.093 C 77.979 67.374,77.977 66.294,77.886 65.693 C 77.795 65.092,77.722 65.680,77.724 67.000 M129.314 68.200 C 129.317 69.300,129.395 69.703,129.487 69.095 C 129.579 68.486,129.577 67.586,129.482 67.095 C 129.387 66.603,129.311 67.100,129.314 68.200 M77.320 72.800 C 77.320 74.010,77.395 74.505,77.487 73.900 C 77.578 73.295,77.578 72.305,77.487 71.700 C 77.395 71.095,77.320 71.590,77.320 72.800 M129.709 73.600 C 129.709 74.590,129.787 74.995,129.882 74.500 C 129.978 74.005,129.978 73.195,129.882 72.700 C 129.787 72.205,129.709 72.610,129.709 73.600 M198.500 75.476 C 198.885 75.576,199.515 75.576,199.900 75.476 C 200.285 75.375,199.970 75.293,199.200 75.293 C 198.430 75.293,198.115 75.375,198.500 75.476 M234.501 76.600 C 234.505 77.480,234.587 77.793,234.683 77.295 C 234.779 76.798,234.775 76.078,234.675 75.695 C 234.575 75.313,234.496 75.720,234.501 76.600 M201.544 76.540 C 202.052 77.081,202.715 78.216,203.017 79.062 C 203.318 79.908,203.573 80.278,203.582 79.884 C 203.609 78.799,202.127 76.134,201.326 75.827 C 200.777 75.616,200.825 75.775,201.544 76.540 M76.920 78.800 C 76.920 80.010,76.995 80.505,77.087 79.900 C 77.178 79.295,77.178 78.305,77.087 77.700 C 76.995 77.095,76.920 77.590,76.920 78.800 M130.109 78.800 C 130.109 79.790,130.187 80.195,130.282 79.700 C 130.378 79.205,130.378 78.395,130.282 77.900 C 130.187 77.405,130.109 77.810,130.109 78.800 M295.600 77.545 C 295.600 77.734,296.050 77.803,296.600 77.698 C 297.150 77.593,297.600 77.438,297.600 77.353 C 297.600 77.269,297.150 77.200,296.600 77.200 C 296.050 77.200,295.600 77.355,295.600 77.545 M299.442 78.168 C 300.346 78.450,301.291 78.809,301.542 78.964 C 301.794 79.120,302.000 79.137,302.000 79.003 C 302.000 78.644,299.343 77.596,298.513 77.627 C 298.121 77.641,298.539 77.885,299.442 78.168 M162.493 79.600 C 162.493 80.370,162.575 80.685,162.676 80.300 C 162.776 79.915,162.776 79.285,162.676 78.900 C 162.575 78.515,162.493 78.830,162.493 79.600 M303.165 80.258 C 305.285 83.471,305.400 84.898,305.400 108.000 C 305.400 134.474,305.052 136.707,300.620 138.637 C 299.883 138.958,299.677 139.175,300.099 139.184 C 300.483 139.193,301.507 138.559,302.375 137.775 C 305.566 134.892,306.002 131.275,305.992 107.810 C 305.983 86.597,305.618 82.821,303.317 80.144 L 302.334 79.000 303.165 80.258 M234.924 83.400 C 234.926 84.720,235.001 85.212,235.090 84.493 C 235.179 83.774,235.177 82.694,235.086 82.093 C 234.995 81.492,234.922 82.080,234.924 83.400 M130.509 84.000 C 130.509 84.990,130.587 85.395,130.682 84.900 C 130.778 84.405,130.778 83.595,130.682 83.100 C 130.587 82.605,130.509 83.010,130.509 84.000 M76.514 84.600 C 76.517 85.700,76.595 86.103,76.687 85.495 C 76.779 84.886,76.777 83.986,76.682 83.495 C 76.587 83.003,76.511 83.500,76.514 84.600 M162.114 85.400 C 162.117 86.500,162.195 86.903,162.287 86.295 C 162.379 85.686,162.377 84.786,162.282 84.295 C 162.187 83.803,162.111 84.300,162.114 85.400 M332.989 111.600 C 332.989 127.110,333.039 133.455,333.100 125.700 C 333.161 117.945,333.161 105.255,333.100 97.500 C 333.039 89.745,332.989 96.090,332.989 111.600 M204.134 86.800 C 204.134 88.450,204.205 89.125,204.291 88.300 C 204.378 87.475,204.378 86.125,204.291 85.300 C 204.205 84.475,204.134 85.150,204.134 86.800 M193.301 86.600 C 193.305 87.480,193.387 87.793,193.483 87.295 C 193.579 86.798,193.575 86.078,193.475 85.695 C 193.375 85.313,193.296 85.720,193.301 86.600 M130.901 89.400 C 130.905 90.280,130.987 90.593,131.083 90.095 C 131.179 89.598,131.175 88.878,131.075 88.495 C 130.975 88.113,130.896 88.520,130.901 89.400 M76.114 90.600 C 76.117 91.700,76.195 92.103,76.287 91.495 C 76.379 90.886,76.377 89.986,76.282 89.495 C 76.187 89.003,76.111 89.500,76.114 90.600 M235.200 99.995 L 235.200 111.191 219.700 111.300 L 204.200 111.410 219.900 111.505 L 235.600 111.600 235.600 100.200 C 235.600 93.930,235.510 88.800,235.400 88.800 C 235.290 88.800,235.200 93.838,235.200 99.995 M104.493 92.400 C 104.493 93.170,104.575 93.485,104.676 93.100 C 104.776 92.715,104.776 92.085,104.676 91.700 C 104.575 91.315,104.493 91.630,104.493 92.400 M131.309 94.800 C 131.309 95.790,131.387 96.195,131.482 95.700 C 131.578 95.205,131.578 94.395,131.482 93.900 C 131.387 93.405,131.309 93.810,131.309 94.800 M161.765 101.400 C 161.766 105.360,161.826 106.926,161.898 104.880 C 161.971 102.834,161.971 99.594,161.898 97.680 C 161.824 95.766,161.765 97.440,161.765 101.400 M75.709 96.400 C 75.709 97.390,75.787 97.795,75.882 97.300 C 75.978 96.805,75.978 95.995,75.882 95.500 C 75.787 95.005,75.709 95.410,75.709 96.400 M104.928 97.200 C 104.928 98.630,105.001 99.215,105.089 98.500 C 105.178 97.785,105.178 96.615,105.089 95.900 C 105.001 95.185,104.928 95.770,104.928 97.200 M104.109 98.000 C 104.109 98.990,104.187 99.395,104.282 98.900 C 104.378 98.405,104.378 97.595,104.282 97.100 C 104.187 96.605,104.109 97.010,104.109 98.000 M131.701 100.200 C 131.705 101.080,131.787 101.393,131.883 100.895 C 131.979 100.398,131.975 99.678,131.875 99.295 C 131.775 98.913,131.696 99.320,131.701 100.200 M193.309 101.600 C 193.309 102.590,193.387 102.995,193.482 102.500 C 193.578 102.005,193.578 101.195,193.482 100.700 C 193.387 100.205,193.309 100.610,193.309 101.600 M75.309 102.400 C 75.309 103.390,75.387 103.795,75.482 103.300 C 75.578 102.805,75.578 101.995,75.482 101.500 C 75.387 101.005,75.309 101.410,75.309 102.400 M103.714 104.200 C 103.717 105.300,103.795 105.703,103.887 105.095 C 103.979 104.486,103.977 103.586,103.882 103.095 C 103.787 102.603,103.711 103.100,103.714 104.200 M105.331 106.600 C 105.333 108.140,105.405 108.721,105.492 107.891 C 105.579 107.061,105.577 105.801,105.489 105.091 C 105.400 104.381,105.329 105.060,105.331 106.600 M132.101 105.400 C 132.105 106.280,132.187 106.593,132.283 106.095 C 132.379 105.598,132.375 104.878,132.275 104.495 C 132.175 104.113,132.096 104.520,132.101 105.400 M74.909 108.400 C 74.909 109.390,74.987 109.795,75.082 109.300 C 75.178 108.805,75.178 107.995,75.082 107.500 C 74.987 107.005,74.909 107.410,74.909 108.400 M103.301 110.200 C 103.305 111.080,103.387 111.393,103.483 110.895 C 103.579 110.398,103.575 109.678,103.475 109.295 C 103.375 108.913,103.296 109.320,103.301 110.200 M132.501 110.600 C 132.505 111.480,132.587 111.793,132.683 111.295 C 132.779 110.798,132.775 110.078,132.675 109.695 C 132.575 109.313,132.496 109.720,132.501 110.600 M195.029 111.600 C 195.176 112.150,195.464 112.870,195.667 113.200 C 195.925 113.617,195.957 113.495,195.771 112.800 C 195.624 112.250,195.336 111.530,195.133 111.200 C 194.875 110.783,194.843 110.905,195.029 111.600 M74.509 114.400 C 74.509 115.390,74.587 115.795,74.682 115.300 C 74.778 114.805,74.778 113.995,74.682 113.500 C 74.587 113.005,74.509 113.410,74.509 114.400 M105.734 115.600 C 105.734 117.250,105.805 117.925,105.891 117.100 C 105.978 116.275,105.978 114.925,105.891 114.100 C 105.805 113.275,105.734 113.950,105.734 115.600 M162.109 114.400 C 162.109 115.390,162.187 115.795,162.282 115.300 C 162.378 114.805,162.378 113.995,162.282 113.500 C 162.187 113.005,162.109 113.410,162.109 114.400 M197.024 115.900 C 198.784 118.940,206.497 128.227,209.231 130.600 C 209.739 131.040,208.299 129.330,206.032 126.800 C 201.300 121.518,198.994 118.597,197.427 115.900 C 196.821 114.855,196.234 114.000,196.124 114.000 C 196.014 114.000,196.419 114.855,197.024 115.900 M102.909 116.400 C 102.909 117.390,102.987 117.795,103.082 117.300 C 103.178 116.805,103.178 115.995,103.082 115.500 C 102.987 115.005,102.909 115.410,102.909 116.400 M132.893 116.000 C 132.893 116.770,132.975 117.085,133.076 116.700 C 133.176 116.315,133.176 115.685,133.076 115.300 C 132.975 114.915,132.893 115.230,132.893 116.000 M74.109 120.400 C 74.109 121.390,74.187 121.795,74.282 121.300 C 74.378 120.805,74.378 119.995,74.282 119.500 C 74.187 119.005,74.109 119.410,74.109 120.400 M133.301 121.400 C 133.305 122.280,133.387 122.593,133.483 122.095 C 133.579 121.598,133.575 120.878,133.475 120.495 C 133.375 120.113,133.296 120.520,133.301 121.400 M102.509 122.400 C 102.509 123.390,102.587 123.795,102.682 123.300 C 102.778 122.805,102.778 121.995,102.682 121.500 C 102.587 121.005,102.509 121.410,102.509 122.400 M106.134 124.800 C 106.134 126.450,106.205 127.125,106.291 126.300 C 106.378 125.475,106.378 124.125,106.291 123.300 C 106.205 122.475,106.134 123.150,106.134 124.800 M73.701 126.200 C 73.705 127.080,73.787 127.393,73.883 126.895 C 73.979 126.398,73.975 125.678,73.875 125.295 C 73.775 124.913,73.696 125.320,73.701 126.200 M133.701 126.600 C 133.705 127.480,133.787 127.793,133.883 127.295 C 133.979 126.798,133.975 126.078,133.875 125.695 C 133.775 125.313,133.696 125.720,133.701 126.600 M102.109 128.400 C 102.109 129.390,102.187 129.795,102.282 129.300 C 102.378 128.805,102.378 127.995,102.282 127.500 C 102.187 127.005,102.109 127.410,102.109 128.400 M106.540 133.600 C 106.540 135.470,106.609 136.235,106.693 135.300 C 106.777 134.365,106.777 132.835,106.693 131.900 C 106.609 130.965,106.540 131.730,106.540 133.600 M73.309 132.400 C 73.309 133.390,73.387 133.795,73.482 133.300 C 73.578 132.805,73.578 131.995,73.482 131.500 C 73.387 131.005,73.309 131.410,73.309 132.400 M134.101 132.200 C 134.105 133.080,134.187 133.393,134.283 132.895 C 134.379 132.398,134.375 131.678,134.275 131.295 C 134.175 130.913,134.096 131.320,134.101 132.200 M210.000 131.725 C 210.000 131.794,210.585 132.379,211.300 133.025 L 212.600 134.200 211.425 132.900 C 210.330 131.688,210.000 131.416,210.000 131.725 M101.709 134.400 C 101.709 135.390,101.787 135.795,101.882 135.300 C 101.978 134.805,101.978 133.995,101.882 133.500 C 101.787 133.005,101.709 133.410,101.709 134.400 M214.964 137.500 C 216.453 139.315,217.749 140.800,217.843 140.800 C 218.130 140.800,214.145 135.853,213.170 135.000 C 212.668 134.560,213.475 135.685,214.964 137.500 M134.509 137.200 C 134.509 138.190,134.587 138.595,134.682 138.100 C 134.778 137.605,134.778 136.795,134.682 136.300 C 134.587 135.805,134.509 136.210,134.509 137.200 M72.909 138.000 C 72.909 138.990,72.987 139.395,73.082 138.900 C 73.178 138.405,73.178 137.595,73.082 137.100 C 72.987 136.605,72.909 137.010,72.909 138.000 M101.314 140.600 C 101.317 141.700,101.395 142.103,101.487 141.495 C 101.579 140.886,101.577 139.986,101.482 139.495 C 101.387 139.003,101.311 139.500,101.314 140.600 M295.966 139.326 C 296.147 139.507,296.993 139.593,297.847 139.519 L 299.400 139.383 297.519 139.190 C 296.484 139.084,295.785 139.145,295.966 139.326 M106.937 143.000 C 106.939 144.760,107.009 145.430,107.093 144.489 C 107.178 143.549,107.177 142.109,107.091 141.289 C 107.005 140.470,106.936 141.240,106.937 143.000 M332.400 142.502 C 332.400 145.648,331.391 154.378,330.617 157.918 C 330.295 159.393,329.937 161.050,329.820 161.600 C 329.704 162.150,329.944 161.610,330.354 160.400 C 331.662 156.539,333.532 140.000,332.661 140.000 C 332.518 140.000,332.400 141.126,332.400 142.502 M134.901 142.600 C 134.905 143.480,134.987 143.793,135.083 143.295 C 135.179 142.798,135.175 142.078,135.075 141.695 C 134.975 141.313,134.896 141.720,134.901 142.600 M72.501 144.200 C 72.505 145.080,72.587 145.393,72.683 144.895 C 72.779 144.398,72.775 143.678,72.675 143.295 C 72.575 142.913,72.496 143.320,72.501 144.200 M167.623 143.341 C 167.526 144.801,174.142 156.247,175.912 157.681 C 176.265 157.966,175.837 157.210,174.961 156.000 C 172.401 152.462,170.933 149.998,169.237 146.387 C 168.361 144.524,167.635 143.153,167.623 143.341 M100.909 146.800 C 100.909 147.790,100.987 148.195,101.082 147.700 C 101.178 147.205,101.178 146.395,101.082 145.900 C 100.987 145.405,100.909 145.810,100.909 146.800 M135.309 147.600 C 135.309 148.590,135.387 148.995,135.482 148.500 C 135.578 148.005,135.578 147.195,135.482 146.700 C 135.387 146.205,135.309 146.610,135.309 147.600 M72.109 150.000 C 72.109 150.990,72.187 151.395,72.282 150.900 C 72.378 150.405,72.378 149.595,72.282 149.100 C 72.187 148.605,72.109 149.010,72.109 150.000 M107.331 151.000 C 107.333 152.540,107.405 153.121,107.492 152.291 C 107.579 151.461,107.577 150.201,107.489 149.491 C 107.400 148.781,107.329 149.460,107.331 151.000 M100.524 153.000 C 100.526 154.320,100.601 154.812,100.690 154.093 C 100.779 153.374,100.777 152.294,100.686 151.693 C 100.595 151.092,100.522 151.680,100.524 153.000 M135.709 153.200 C 135.709 154.190,135.787 154.595,135.882 154.100 C 135.978 153.605,135.978 152.795,135.882 152.300 C 135.787 151.805,135.709 152.210,135.709 153.200 M226.633 153.400 C 227.034 154.060,228.311 156.400,229.472 158.600 C 230.633 160.800,231.587 162.442,231.591 162.250 C 231.605 161.681,227.638 154.288,226.735 153.200 L 225.905 152.200 226.633 153.400 M71.709 156.000 C 71.709 156.990,71.787 157.395,71.882 156.900 C 71.978 156.405,71.978 155.595,71.882 155.100 C 71.787 154.605,71.709 155.010,71.709 156.000 M107.734 158.400 C 107.734 160.050,107.805 160.725,107.891 159.900 C 107.978 159.075,107.978 157.725,107.891 156.900 C 107.805 156.075,107.734 156.750,107.734 158.400 M136.120 158.000 C 136.120 159.210,136.195 159.705,136.287 159.100 C 136.378 158.495,136.378 157.505,136.287 156.900 C 136.195 156.295,136.120 156.790,136.120 158.000 M100.124 160.200 C 100.126 161.520,100.201 162.012,100.290 161.293 C 100.379 160.574,100.377 159.494,100.286 158.893 C 100.195 158.292,100.122 158.880,100.124 160.200 M71.309 162.000 C 71.309 162.990,71.387 163.395,71.482 162.900 C 71.578 162.405,71.578 161.595,71.482 161.100 C 71.387 160.605,71.309 161.010,71.309 162.000 M136.520 163.200 C 136.520 164.410,136.595 164.905,136.687 164.300 C 136.778 163.695,136.778 162.705,136.687 162.100 C 136.595 161.495,136.520 161.990,136.520 163.200 M108.134 166.000 C 108.134 167.650,108.205 168.325,108.291 167.500 C 108.378 166.675,108.378 165.325,108.291 164.500 C 108.205 163.675,108.134 164.350,108.134 166.000 M328.465 165.017 C 327.795 166.488,327.923 166.802,328.647 165.465 C 328.986 164.840,329.188 164.254,329.096 164.163 C 329.005 164.071,328.721 164.456,328.465 165.017 M99.728 167.200 C 99.728 168.630,99.801 169.215,99.889 168.500 C 99.978 167.785,99.978 166.615,99.889 165.900 C 99.801 165.185,99.728 165.770,99.728 167.200 M185.200 169.600 C 186.982 171.800,188.529 173.600,188.639 173.600 C 188.749 173.600,187.382 171.800,185.600 169.600 C 183.818 167.400,182.271 165.600,182.161 165.600 C 182.051 165.600,183.418 167.400,185.200 169.600 M70.914 167.800 C 70.917 168.900,70.995 169.303,71.087 168.695 C 71.179 168.086,71.177 167.186,71.082 166.695 C 70.987 166.203,70.911 166.700,70.914 167.800 M136.924 168.600 C 136.926 169.920,137.001 170.412,137.090 169.693 C 137.179 168.974,137.177 167.894,137.086 167.293 C 136.995 166.692,136.922 167.280,136.924 168.600 M108.542 173.000 C 108.541 174.980,108.608 175.840,108.692 174.912 C 108.776 173.984,108.777 172.364,108.695 171.312 C 108.612 170.260,108.543 171.020,108.542 173.000 M137.328 173.600 C 137.328 175.030,137.401 175.615,137.489 174.900 C 137.578 174.185,137.578 173.015,137.489 172.300 C 137.401 171.585,137.328 172.170,137.328 173.600 M322.587 174.100 L 320.200 176.600 322.700 174.213 C 324.075 172.899,325.200 171.774,325.200 171.713 C 325.200 171.417,324.805 171.778,322.587 174.100 M70.514 173.800 C 70.517 174.900,70.595 175.303,70.687 174.695 C 70.779 174.086,70.777 173.186,70.682 172.695 C 70.587 172.203,70.511 172.700,70.514 173.800 M99.331 174.600 C 99.333 176.140,99.405 176.721,99.492 175.891 C 99.579 175.061,99.577 173.801,99.489 173.091 C 99.400 172.381,99.329 173.060,99.331 174.600 M137.715 178.400 C 137.709 179.610,137.832 181.950,137.988 183.600 L 138.271 186.600 138.286 184.200 C 138.294 182.880,138.171 180.540,138.013 179.000 C 137.734 176.279,137.726 176.262,137.715 178.400 M70.128 179.200 C 70.128 180.630,70.201 181.215,70.289 180.500 C 70.378 179.785,70.378 178.615,70.289 177.900 C 70.201 177.185,70.128 177.770,70.128 179.200 M108.917 180.000 C 108.909 181.650,109.028 184.980,109.183 187.400 L 109.464 191.800 109.485 188.400 C 109.497 186.530,109.377 183.200,109.219 181.000 C 108.944 177.174,108.931 177.131,108.917 180.000 M98.940 182.800 C 98.940 184.670,99.009 185.435,99.093 184.500 C 99.177 183.565,99.177 182.035,99.093 181.100 C 99.009 180.165,98.940 180.930,98.940 182.800 M196.943 184.274 C 198.580 186.515,200.593 189.440,201.416 190.774 C 202.240 192.108,202.996 193.200,203.097 193.200 C 203.627 193.200,197.525 184.235,195.201 181.600 C 194.522 180.830,195.306 182.033,196.943 184.274 M295.599 181.100 C 295.599 181.265,297.354 181.352,299.499 181.294 C 306.726 181.097,307.435 180.948,301.500 180.874 C 298.255 180.833,295.600 180.935,295.599 181.100 M69.728 185.200 C 69.728 186.630,69.801 187.215,69.889 186.500 C 69.978 185.785,69.978 184.615,69.889 183.900 C 69.801 183.185,69.728 183.770,69.728 185.200 M138.448 187.600 C 138.335 189.172,140.985 223.530,141.125 222.311 C 141.234 221.371,139.026 190.356,138.655 187.600 L 138.520 186.600 138.448 187.600 M69.334 190.800 C 69.334 192.450,69.405 193.125,69.491 192.300 C 69.578 191.475,69.578 190.125,69.491 189.300 C 69.405 188.475,69.334 189.150,69.334 190.800 M98.559 190.200 L 98.600 192.200 103.800 192.217 L 109.000 192.235 103.921 192.106 L 98.843 191.977 98.681 190.089 L 98.518 188.200 98.559 190.200 M237.293 191.200 C 237.293 191.970,237.375 192.285,237.476 191.900 C 237.576 191.515,237.576 190.885,237.476 190.500 C 237.375 190.115,237.293 190.430,237.293 191.200 M193.781 205.000 C 193.781 213.140,193.834 216.413,193.900 212.274 C 193.965 208.134,193.965 201.474,193.899 197.474 C 193.834 193.473,193.781 196.860,193.781 205.000 M68.934 196.800 C 68.934 198.450,69.005 199.125,69.091 198.300 C 69.178 197.475,69.178 196.125,69.091 195.300 C 69.005 194.475,68.934 195.150,68.934 196.800 M237.714 197.400 C 237.717 198.500,237.795 198.903,237.887 198.295 C 237.979 197.686,237.977 196.786,237.882 196.295 C 237.787 195.803,237.711 196.300,237.714 197.400 M68.207 205.407 C 68.047 208.400,68.002 210.936,68.109 211.042 C 68.215 211.148,68.433 208.786,68.593 205.793 C 68.753 202.800,68.798 200.264,68.691 200.158 C 68.585 200.052,68.367 202.414,68.207 205.407 M205.701 205.400 C 205.705 206.280,205.787 206.593,205.883 206.095 C 205.979 205.598,205.975 204.878,205.875 204.495 C 205.775 204.113,205.696 204.520,205.701 205.400 M238.173 213.800 C 238.173 219.080,238.230 221.185,238.299 218.477 C 238.368 215.769,238.368 211.449,238.299 208.877 C 238.229 206.305,238.172 208.520,238.173 213.800 M206.131 211.800 C 206.133 213.340,206.205 213.921,206.292 213.091 C 206.379 212.261,206.377 211.001,206.289 210.291 C 206.200 209.581,206.129 210.260,206.131 211.800 M66.440 231.279 C 65.711 242.157,65.182 251.405,65.266 251.829 C 65.349 252.253,66.023 243.582,66.762 232.561 C 67.502 221.539,68.031 212.292,67.937 212.011 C 67.843 211.730,67.170 220.401,66.440 231.279 M162.951 216.000 C 162.951 218.530,163.016 219.565,163.096 218.300 C 163.175 217.035,163.175 214.965,163.096 213.700 C 163.016 212.435,162.951 213.470,162.951 216.000 M141.328 226.000 C 141.328 227.430,141.401 228.015,141.489 227.300 C 141.578 226.585,141.578 225.415,141.489 224.700 C 141.401 223.985,141.328 224.570,141.328 226.000 M163.320 226.400 C 163.320 227.610,163.395 228.105,163.487 227.500 C 163.578 226.895,163.578 225.905,163.487 225.300 C 163.395 224.695,163.320 225.190,163.320 226.400 M206.101 226.600 C 206.105 227.480,206.187 227.793,206.283 227.295 C 206.379 226.798,206.375 226.078,206.275 225.695 C 206.175 225.313,206.096 225.720,206.101 226.600 M194.109 228.800 C 194.109 229.790,194.187 230.195,194.282 229.700 C 194.378 229.205,194.378 228.395,194.282 227.900 C 194.187 227.405,194.109 227.810,194.109 228.800 M237.714 229.800 C 237.717 230.900,237.795 231.303,237.887 230.695 C 237.979 230.086,237.977 229.186,237.882 228.695 C 237.787 228.203,237.711 228.700,237.714 229.800 M141.724 231.000 C 141.726 232.320,141.801 232.812,141.890 232.093 C 141.979 231.374,141.977 230.294,141.886 229.693 C 141.795 229.092,141.722 229.680,141.724 231.000 M142.128 236.400 C 142.128 237.830,142.201 238.415,142.289 237.700 C 142.378 236.985,142.378 235.815,142.289 235.100 C 142.201 234.385,142.128 234.970,142.128 236.400 M164.093 236.000 C 164.093 236.770,164.175 237.085,164.276 236.700 C 164.376 236.315,164.376 235.685,164.276 235.300 C 164.175 234.915,164.093 235.230,164.093 236.000 M237.301 236.200 C 237.305 237.080,237.387 237.393,237.483 236.895 C 237.579 236.398,237.575 235.678,237.475 235.295 C 237.375 234.913,237.296 235.320,237.301 236.200 M98.893 236.400 C 98.893 237.170,98.975 237.485,99.076 237.100 C 99.176 236.715,99.176 236.085,99.076 235.700 C 98.975 235.315,98.893 235.630,98.893 236.400 M110.309 238.099 C 110.498 243.081,110.669 243.565,110.736 239.300 C 110.771 237.045,110.665 235.200,110.500 235.199 C 110.335 235.199,110.249 236.504,110.309 238.099 M195.200 235.889 C 195.200 236.121,195.571 236.736,196.024 237.256 L 196.847 238.200 196.145 237.000 C 195.220 235.421,195.200 235.397,195.200 235.889 M142.520 241.200 C 142.520 242.410,142.595 242.905,142.687 242.300 C 142.778 241.695,142.778 240.705,142.687 240.100 C 142.595 239.495,142.520 239.990,142.520 241.200 M98.542 243.800 C 98.541 245.780,98.608 246.640,98.692 245.712 C 98.776 244.784,98.777 243.164,98.695 242.112 C 98.612 241.060,98.543 241.820,98.542 243.800 M110.918 247.800 C 110.907 250.220,111.024 254.720,111.179 257.800 L 111.461 263.400 111.482 259.000 C 111.493 256.580,111.376 252.080,111.221 249.000 L 110.939 243.400 110.918 247.800 M142.914 246.600 C 142.917 247.700,142.995 248.103,143.087 247.495 C 143.179 246.886,143.177 245.986,143.082 245.495 C 142.987 245.003,142.911 245.500,142.914 246.600 M98.142 253.000 C 98.141 254.980,98.208 255.840,98.292 254.912 C 98.376 253.984,98.377 252.364,98.295 251.312 C 98.212 250.260,98.143 251.020,98.142 253.000 M143.320 252.000 C 143.320 253.210,143.395 253.705,143.487 253.100 C 143.578 252.495,143.578 251.505,143.487 250.900 C 143.395 250.295,143.320 250.790,143.320 252.000 M64.614 258.014 C 64.455 260.898,64.411 263.344,64.516 263.450 C 64.622 263.555,64.840 261.283,65.000 258.400 C 65.160 255.517,65.204 253.071,65.098 252.965 C 64.991 252.858,64.774 255.130,64.614 258.014 M167.618 253.350 C 167.592 253.850,169.687 258.446,169.862 258.271 C 169.942 258.191,169.474 256.972,168.822 255.563 C 168.170 254.153,167.628 253.157,167.618 253.350 M143.714 257.000 C 143.717 258.100,143.795 258.503,143.887 257.895 C 143.979 257.286,143.977 256.386,143.882 255.895 C 143.787 255.403,143.711 255.900,143.714 257.000 M97.748 261.200 C 97.748 263.510,97.814 264.455,97.895 263.300 C 97.976 262.145,97.976 260.255,97.895 259.100 C 97.814 257.945,97.748 258.890,97.748 261.200 M170.024 258.930 C 169.995 259.328,173.500 264.800,173.783 264.800 C 173.954 264.800,173.360 263.806,170.524 259.349 C 170.261 258.937,170.036 258.748,170.024 258.930 M230.187 261.796 C 227.202 266.901,221.496 272.269,215.894 275.243 C 212.637 276.972,212.493 277.372,215.713 275.746 C 221.566 272.791,228.514 266.064,231.246 260.710 C 232.464 258.322,231.851 258.950,230.187 261.796 M144.114 262.600 C 144.117 263.700,144.195 264.103,144.287 263.495 C 144.379 262.886,144.377 261.986,144.282 261.495 C 144.187 261.003,144.111 261.500,144.114 262.600 M111.838 271.131 C 111.922 275.162,112.093 278.627,112.219 278.831 C 112.353 279.047,119.321 279.200,129.024 279.200 L 145.600 279.200 145.540 277.900 C 145.484 276.690,145.469 276.676,145.313 277.700 L 145.147 278.800 128.773 278.800 L 112.400 278.800 112.351 276.700 C 112.324 275.545,112.163 272.170,111.994 269.200 C 111.701 264.090,111.693 264.193,111.838 271.131 M64.131 267.000 C 64.133 268.540,64.205 269.121,64.292 268.291 C 64.379 267.461,64.377 266.201,64.289 265.491 C 64.200 264.781,64.129 265.460,64.131 267.000 M144.509 267.600 C 144.509 268.590,144.587 268.995,144.682 268.500 C 144.778 268.005,144.778 267.195,144.682 266.700 C 144.587 266.205,144.509 266.610,144.509 267.600 M97.278 269.200 C 97.233 270.850,97.080 273.685,96.938 275.500 L 96.681 278.800 80.166 278.800 L 63.651 278.800 63.473 277.500 L 63.296 276.200 63.348 277.600 L 63.400 279.000 80.200 279.000 L 97.000 279.000 97.311 275.600 C 97.483 273.730,97.564 270.850,97.492 269.200 L 97.361 266.200 97.278 269.200 M177.205 268.940 C 179.407 271.462,187.197 276.816,188.633 276.794 C 188.835 276.791,187.650 276.054,186.000 275.157 C 183.011 273.531,180.834 271.957,177.805 269.234 C 176.652 268.196,176.486 268.115,177.205 268.940 M63.724 272.600 C 63.726 273.920,63.801 274.412,63.890 273.693 C 63.979 272.974,63.977 271.894,63.886 271.293 C 63.795 270.692,63.722 271.280,63.724 272.600 M144.914 273.000 C 144.917 274.100,144.995 274.503,145.087 273.895 C 145.179 273.286,145.177 272.386,145.082 271.895 C 144.987 271.403,144.911 271.900,144.914 273.000 M263.200 278.900 C 263.200 279.065,270.535 279.160,279.500 279.112 C 288.465 279.063,293.190 278.974,290.000 278.913 C 275.212 278.633,263.199 278.627,263.200 278.900 M200.100 279.087 C 200.705 279.178,201.695 279.178,202.300 279.087 C 202.905 278.995,202.410 278.920,201.200 278.920 C 199.990 278.920,199.495 278.995,200.100 279.087 " stroke="none" fill="#f8a5a8" fill-rule="evenodd"></path></g></svg>