<svg  viewBox="0 0 36 36" xmlns="http://www.w3.org/2000/svg">
<path d="M18 3.24C22.8046 3.24 23.3723 3.25385 25.2692 3.35077C27.0277 3.43385 27.9831 3.72462 28.6062 3.97385C29.4508 4.30615 30.0462 4.69385 30.6692 5.31692C31.3062 5.95385 31.6938 6.54923 32.0123 7.38C32.2615 8.01692 32.5523 8.97231 32.6354 10.7169C32.7185 12.6138 32.7462 13.1815 32.7462 17.9862C32.7462 22.7908 32.7323 23.3585 32.6354 25.2554C32.5523 27.0138 32.2615 27.9692 32.0123 28.5923C31.68 29.4369 31.2923 30.0323 30.6692 30.6692C30.0462 31.2923 29.4369 31.6938 28.6062 32.0123C27.9692 32.2615 27.0138 32.5523 25.2692 32.6354C23.3723 32.7185 22.8046 32.7462 18 32.7462C13.1954 32.7462 12.6277 32.7323 10.7308 32.6354C8.97231 32.5523 8.01692 32.2615 7.39385 32.0123C6.54923 31.68 5.95385 31.2923 5.31692 30.6692C4.69385 30.0323 4.29231 29.4369 3.97385 28.5923C3.72462 27.9554 3.43385 27 3.35077 25.2554C3.26769 23.3862 3.24 22.8046 3.24 18C3.24 13.1954 3.25385 12.6277 3.35077 10.7308C3.43385 8.97231 3.72462 8.01692 3.97385 7.39385C4.29231 6.54923 4.68 5.94 5.31692 5.31692C5.95385 4.68 6.54923 4.29231 7.39385 3.97385C8.03077 3.72462 8.98615 3.43385 10.7308 3.35077C12.6277 3.26769 13.1954 3.24 18 3.24ZM18 0C13.1123 0 12.5031 0.0276923 10.5785 0.110769C8.66769 0.193846 7.35231 0.498462 6.20308 0.941539C5.01231 1.39846 4.01538 2.02154 3.01846 3.01846C2.02154 4.01538 1.39846 5.02615 0.941539 6.20308C0.498462 7.35231 0.193846 8.65385 0.110769 10.5785C0.0138462 12.5031 0 13.1123 0 18C0 22.8877 0.0138462 23.4969 0.110769 25.4215C0.193846 27.3323 0.498462 28.6477 0.941539 29.7969C1.39846 30.9738 2.02154 31.9846 3.01846 32.9815C4.01538 33.9785 5.02615 34.6015 6.20308 35.0585C7.35231 35.5015 8.65385 35.8062 10.5785 35.8892C12.5031 35.9862 13.1123 36 18 36C22.8877 36 23.4969 35.9862 25.4215 35.8892C27.3323 35.8062 28.6477 35.5015 29.7969 35.0585C30.9877 34.6015 31.9846 33.9785 32.9815 32.9815C33.9785 31.9846 34.6015 30.9738 35.0585 29.7969C35.5015 28.6477 35.8062 27.3462 35.8892 25.4215C35.9862 23.5108 36 22.8877 36 18C36 13.1123 35.9862 12.5031 35.8892 10.5785C35.8062 8.66769 35.5015 7.35231 35.0585 6.20308C34.6015 5.02615 33.9785 4.01538 32.9815 3.01846C31.9846 2.02154 30.9738 1.39846 29.7969 0.941539C28.6477 0.498462 27.3462 0.193846 25.4215 0.110769C23.5108 0.0276923 22.8877 0 18 0Z" />
<path d="M18 8.76465C12.8907 8.76465 8.75073 12.9046 8.75073 18.0139C8.75073 23.1231 12.8907 27.2631 18 27.2631C23.1092 27.2631 27.2492 23.1231 27.2492 18.0139C27.2492 12.9046 23.1092 8.76465 18 8.76465ZM18 24.0093C14.6907 24.0093 12.0046 21.3231 12.0046 18.0139C12.0046 14.7046 14.6907 12.0185 18 12.0185C21.3092 12.0185 23.9953 14.7046 23.9953 18.0139C24.0092 21.3231 21.323 24.0093 18 24.0093Z" />
<path d="M29.7692 8.39077C29.7692 9.58154 28.8 10.5508 27.6092 10.5508C26.4185 10.5508 25.4492 9.58154 25.4492 8.39077C25.4492 7.2 26.4185 6.23077 27.6092 6.23077C28.8 6.23077 29.7692 7.2 29.7692 8.39077Z" />
</svg>
