<svg id="svg" version="1.1" xmlns="http://www.w3.org/2000/svg" xmlns:xlink="http://www.w3.org/1999/xlink" viewBox="0, 0, 400,158.00498753117208">
	<g id="svgg">
		<path id="path0" d="M385.583 0.181 C 384.616 0.371,383.121 0.836,383.000 0.985 C 382.954 1.041,382.617 1.236,382.250 1.418 C 381.042 2.019,378.559 4.445,378.092 5.480 C 377.922 5.858,377.728 6.167,377.660 6.167 C 377.593 6.167,377.362 6.710,377.148 7.375 C 376.934 8.040,376.682 8.637,376.588 8.702 C 376.323 8.887,376.359 14.703,376.625 14.792 C 376.740 14.830,376.833 14.955,376.833 15.070 C 376.833 15.537,377.541 17.391,377.843 17.715 C 378.021 17.907,378.167 18.153,378.167 18.264 C 378.167 18.512,378.839 19.328,379.833 20.286 C 381.082 21.489,381.228 21.609,381.833 21.917 C 382.154 22.080,382.454 22.259,382.500 22.315 C 382.649 22.497,383.738 22.953,384.334 23.082 C 384.654 23.152,384.955 23.268,385.001 23.341 C 385.290 23.790,391.177 23.815,391.489 23.368 C 391.541 23.294,392.056 23.093,392.633 22.922 C 393.210 22.750,393.735 22.528,393.799 22.429 C 393.864 22.331,394.265 22.079,394.692 21.871 C 395.118 21.663,395.510 21.382,395.562 21.247 C 395.614 21.111,395.753 21.000,395.871 21.000 C 396.062 21.000,396.707 20.350,397.891 18.964 C 398.104 18.715,398.419 18.190,398.592 17.797 C 398.766 17.405,398.955 17.046,399.012 17.000 C 399.800 16.373,400.305 11.357,399.821 8.967 C 399.579 7.767,399.166 6.500,399.019 6.500 C 398.952 6.500,398.769 6.208,398.611 5.851 C 398.454 5.494,398.103 4.950,397.832 4.643 C 397.561 4.335,397.337 4.035,397.336 3.975 C 397.332 3.831,396.164 2.667,396.023 2.667 C 395.963 2.667,395.712 2.480,395.467 2.253 C 395.221 2.025,394.697 1.675,394.302 1.475 C 393.907 1.275,393.471 1.023,393.333 0.916 C 392.458 0.229,387.654 -0.226,385.583 0.181 M390.896 2.483 C 391.618 2.656,392.255 2.866,392.312 2.949 C 392.370 3.033,392.744 3.269,393.144 3.475 C 393.544 3.680,393.971 3.939,394.091 4.049 C 395.356 5.208,396.181 6.149,396.503 6.800 C 396.716 7.231,396.953 7.626,397.030 7.678 C 397.250 7.826,397.833 10.091,397.833 10.798 C 397.833 11.147,397.920 11.520,398.026 11.626 C 398.159 11.759,398.166 11.886,398.049 12.035 C 397.956 12.153,397.834 12.700,397.778 13.250 C 397.679 14.239,397.224 15.839,396.996 16.000 C 396.931 16.046,396.715 16.404,396.517 16.796 C 396.146 17.527,393.996 19.833,393.686 19.833 C 393.591 19.833,393.379 19.973,393.215 20.144 C 393.051 20.315,392.392 20.620,391.750 20.823 C 391.108 21.025,390.419 21.271,390.218 21.368 C 389.739 21.601,386.781 21.611,386.295 21.381 C 386.087 21.282,385.335 20.998,384.625 20.750 C 383.915 20.502,383.333 20.237,383.333 20.161 C 383.333 20.085,383.171 19.971,382.972 19.908 C 382.518 19.764,380.167 17.429,380.167 17.123 C 380.167 16.998,380.021 16.740,379.843 16.549 C 379.511 16.192,378.833 14.352,378.833 13.806 C 378.833 13.638,378.758 13.500,378.667 13.500 C 378.453 13.500,378.445 10.652,378.656 10.133 C 378.742 9.922,378.972 9.211,379.167 8.552 C 379.362 7.893,379.576 7.331,379.642 7.302 C 379.708 7.273,379.969 6.893,380.222 6.457 C 380.634 5.747,381.228 5.091,382.371 4.084 C 382.579 3.900,383.050 3.605,383.416 3.426 C 383.783 3.248,384.121 3.053,384.167 2.992 C 384.264 2.863,385.731 2.383,386.333 2.282 C 387.458 2.094,389.677 2.192,390.896 2.483 M383.706 11.792 L 383.750 18.250 384.708 18.300 L 385.667 18.350 385.667 15.842 L 385.667 13.333 386.478 13.333 C 387.358 13.333,387.230 13.227,388.954 15.404 C 389.945 16.657,390.157 16.914,390.663 17.483 C 390.940 17.795,391.167 18.113,391.167 18.191 C 391.167 18.269,391.767 18.333,392.500 18.333 C 393.877 18.333,394.169 18.153,393.583 17.667 C 393.446 17.553,393.333 17.361,393.333 17.241 C 393.333 17.121,393.108 16.862,392.833 16.667 C 392.558 16.471,392.333 16.205,392.333 16.076 C 392.333 15.947,392.146 15.718,391.917 15.568 C 391.688 15.418,391.500 15.211,391.500 15.108 C 391.500 15.005,391.315 14.732,391.088 14.502 C 390.127 13.524,389.587 12.777,389.793 12.708 C 390.236 12.560,391.485 11.229,391.592 10.790 C 391.653 10.537,391.770 10.289,391.852 10.239 C 392.460 9.862,391.735 6.726,390.942 6.303 C 390.745 6.198,390.508 6.018,390.417 5.903 C 390.097 5.500,388.897 5.335,386.290 5.334 L 383.663 5.333 383.706 11.792 M388.000 7.137 C 388.000 7.213,388.279 7.344,388.621 7.429 C 389.439 7.632,389.698 8.140,389.620 9.388 C 389.527 10.893,388.906 11.396,387.048 11.475 L 385.667 11.534 385.667 9.267 L 385.667 7.000 386.833 7.000 C 387.475 7.000,388.000 7.062,388.000 7.137 M10.443 13.292 C 10.383 14.185,10.335 15.306,10.334 15.782 C 10.334 16.258,10.256 16.695,10.162 16.753 C 10.068 16.811,10.002 17.097,10.016 17.388 C 10.070 18.568,9.260 31.424,9.126 31.516 C 9.046 31.570,8.992 31.983,9.005 32.432 C 9.017 32.882,8.913 35.050,8.771 37.250 C 8.630 39.450,8.468 42.262,8.412 43.500 C 8.355 44.737,8.245 45.938,8.167 46.167 C 8.089 46.396,7.818 50.408,7.565 55.083 C 7.312 59.758,7.056 63.621,6.997 63.667 C 6.937 63.712,6.713 67.012,6.498 71.000 C 6.284 74.987,6.061 78.287,6.002 78.333 C 5.943 78.379,5.718 81.679,5.502 85.667 C 5.285 89.654,5.059 92.954,4.999 93.000 C 4.939 93.046,4.713 96.365,4.497 100.375 C 4.280 104.385,4.043 107.667,3.968 107.667 C 3.894 107.667,3.833 108.083,3.833 108.593 C 3.833 109.519,3.423 116.921,3.254 119.042 L 3.164 120.167 10.808 120.167 L 18.452 120.167 18.554 118.708 C 18.609 117.906,18.747 114.494,18.859 111.125 C 18.971 107.756,19.123 105.000,19.198 105.000 C 19.272 105.000,19.333 104.063,19.333 102.917 L 19.333 100.833 21.645 100.833 L 23.957 100.833 24.060 101.475 C 24.116 101.827,24.170 103.083,24.178 104.266 C 24.187 105.448,24.253 106.491,24.324 106.583 C 24.396 106.675,24.503 108.513,24.562 110.667 C 24.620 112.821,24.717 115.840,24.776 117.375 L 24.884 120.167 32.467 120.167 L 40.049 120.167 39.943 118.625 C 39.884 117.777,39.787 116.183,39.726 115.083 C 39.666 113.983,39.564 113.046,39.501 113.000 C 39.438 112.954,39.211 109.992,38.998 106.417 C 38.785 102.842,38.561 99.879,38.501 99.833 C 38.440 99.787,38.222 96.938,38.017 93.500 C 37.811 90.063,37.579 87.100,37.501 86.917 C 37.423 86.733,37.190 83.696,36.985 80.167 C 36.779 76.637,36.560 73.712,36.499 73.667 C 36.438 73.621,36.219 70.733,36.013 67.250 C 35.806 63.767,35.575 60.767,35.498 60.583 C 35.422 60.400,35.198 57.475,35.000 54.083 C 34.802 50.692,34.577 47.767,34.499 47.583 C 34.421 47.400,34.189 44.400,33.983 40.917 C 33.778 37.433,33.562 34.546,33.503 34.500 C 33.444 34.454,33.181 30.929,32.918 26.667 C 32.655 22.404,32.390 18.879,32.328 18.833 C 32.267 18.787,32.166 17.775,32.105 16.583 C 32.043 15.392,31.946 13.798,31.889 13.042 L 31.784 11.667 21.167 11.667 L 10.550 11.667 10.443 13.292 M114.833 65.917 L 114.833 120.167 121.909 120.167 L 128.984 120.167 129.046 84.958 C 129.107 49.531,129.143 47.389,129.680 47.194 C 129.764 47.164,129.835 47.014,129.837 46.861 C 129.839 46.708,129.970 46.423,130.129 46.226 C 131.042 45.093,132.500 46.213,132.500 48.047 C 132.500 48.281,132.594 48.503,132.708 48.542 C 132.874 48.597,132.927 55.950,132.965 84.389 L 133.014 120.167 140.098 120.167 L 147.182 120.167 147.133 81.994 C 147.097 54.449,147.032 43.788,146.900 43.702 C 146.799 43.637,146.673 42.908,146.620 42.083 C 146.520 40.533,146.059 37.981,145.852 37.834 C 145.787 37.788,145.635 37.412,145.515 37.000 C 145.256 36.114,144.031 33.808,143.718 33.617 C 143.598 33.543,143.500 33.387,143.500 33.270 C 143.500 32.915,141.718 31.062,141.089 30.764 C 140.765 30.610,140.500 30.418,140.500 30.337 C 140.500 29.526,134.445 29.486,133.842 30.294 C 133.791 30.361,133.487 30.561,133.167 30.738 C 132.015 31.371,131.078 32.320,129.708 34.239 L 129.000 35.232 129.000 23.449 L 129.000 11.667 121.917 11.667 L 114.833 11.667 114.833 65.917 M199.833 65.917 L 199.833 120.167 207.167 120.167 L 214.500 120.167 214.500 98.440 L 214.500 76.713 217.625 76.623 C 220.470 76.540,222.450 76.301,222.667 76.013 C 222.713 75.953,223.086 75.794,223.497 75.662 C 225.128 75.136,227.481 73.022,228.374 71.281 C 228.571 70.897,228.782 70.546,228.844 70.500 C 228.905 70.454,229.128 69.892,229.339 69.250 C 229.550 68.608,229.778 68.008,229.846 67.917 C 230.116 67.555,230.710 63.415,231.017 59.750 C 231.273 56.706,231.146 29.412,230.875 29.142 C 230.760 29.027,230.666 28.555,230.666 28.092 C 230.665 26.995,230.054 22.851,229.858 22.606 C 229.774 22.502,229.654 22.154,229.591 21.833 C 229.431 21.018,228.973 19.600,228.838 19.500 C 228.776 19.454,228.548 18.985,228.332 18.458 C 228.116 17.931,227.877 17.500,227.803 17.500 C 227.728 17.500,227.667 17.422,227.667 17.327 C 227.667 16.938,225.319 14.333,224.968 14.333 C 224.903 14.333,224.648 14.146,224.401 13.917 C 224.154 13.688,223.855 13.500,223.738 13.500 C 223.620 13.500,223.419 13.395,223.290 13.266 C 223.022 12.998,221.879 12.585,220.912 12.407 C 220.548 12.340,220.212 12.227,220.165 12.156 C 219.944 11.819,216.270 11.667,208.340 11.667 L 199.833 11.667 199.833 65.917 M352.833 65.917 L 352.833 120.167 360.083 120.167 L 367.333 120.167 367.333 65.917 L 367.333 11.667 360.083 11.667 L 352.833 11.667 352.833 65.917 M271.167 26.250 L 271.167 33.167 269.667 33.167 L 268.167 33.167 268.167 40.500 L 268.167 47.833 269.667 47.833 L 271.167 47.833 271.167 77.333 C 271.167 93.558,271.230 106.833,271.308 106.833 C 271.386 106.833,271.498 107.715,271.558 108.792 C 271.669 110.776,272.053 113.149,272.292 113.322 C 272.364 113.374,272.603 113.936,272.823 114.570 C 273.043 115.204,273.360 115.860,273.528 116.028 C 273.696 116.196,273.833 116.440,273.833 116.570 C 273.833 117.003,276.040 119.115,276.625 119.242 C 276.923 119.307,277.167 119.421,277.167 119.495 C 277.167 119.850,279.543 120.052,284.542 120.123 L 289.833 120.198 289.833 112.849 L 289.833 105.500 288.583 105.500 C 287.861 105.500,287.333 105.430,287.333 105.333 C 287.333 105.242,287.154 105.167,286.935 105.167 C 286.007 105.167,285.800 104.736,285.706 102.615 C 285.659 101.543,285.556 100.667,285.477 100.667 C 285.397 100.667,285.333 88.895,285.333 74.250 L 285.333 47.833 287.250 47.833 L 289.167 47.833 289.167 40.500 L 289.167 33.167 287.250 33.167 L 285.333 33.167 285.333 26.250 L 285.333 19.333 278.250 19.333 L 271.167 19.333 271.167 26.250 M62.142 29.883 C 61.807 29.993,61.389 30.215,61.212 30.375 C 61.035 30.535,60.818 30.667,60.730 30.667 C 60.571 30.667,59.665 31.511,58.812 32.453 C 58.571 32.719,58.242 33.195,58.081 33.510 C 57.919 33.825,57.741 34.121,57.685 34.167 C 57.481 34.334,57.000 35.308,57.000 35.555 C 57.000 35.695,56.900 35.910,56.777 36.033 C 56.654 36.156,56.430 36.592,56.278 37.003 C 56.012 37.727,56.006 37.650,56.103 34.458 L 56.203 31.167 48.935 31.167 L 41.667 31.167 41.667 75.667 L 41.667 120.167 48.828 120.167 L 55.989 120.167 56.042 84.375 C 56.100 44.870,56.041 46.957,57.124 46.125 C 57.831 45.582,57.927 45.572,58.601 45.984 C 59.246 46.377,59.500 47.273,59.500 49.157 C 59.500 49.941,59.569 50.500,59.667 50.500 C 59.777 50.500,59.833 62.222,59.833 85.333 L 59.833 120.167 66.840 120.167 L 73.846 120.167 73.781 82.208 C 73.735 55.528,73.660 43.730,73.527 42.500 C 73.274 40.147,72.993 38.455,72.819 38.239 C 72.740 38.141,72.589 37.653,72.483 37.155 C 72.377 36.657,72.120 35.912,71.911 35.500 C 71.703 35.087,71.404 34.469,71.247 34.125 C 71.090 33.781,70.896 33.500,70.814 33.500 C 70.733 33.500,70.667 33.422,70.667 33.327 C 70.667 32.872,69.160 31.202,68.333 30.742 C 68.012 30.563,67.712 30.372,67.667 30.317 C 67.198 29.754,63.429 29.458,62.142 29.883 M99.100 29.904 C 98.742 30.036,98.405 30.206,98.350 30.281 C 98.295 30.356,98.046 30.522,97.797 30.650 C 97.388 30.861,96.288 31.897,95.417 32.892 C 95.233 33.102,94.901 33.605,94.679 34.011 C 94.457 34.418,94.222 34.787,94.158 34.833 C 94.094 34.879,93.868 35.329,93.655 35.833 C 93.442 36.337,93.211 36.790,93.142 36.838 C 93.073 36.886,92.937 37.111,92.840 37.338 C 92.711 37.637,92.690 36.849,92.764 34.458 L 92.865 31.167 85.599 31.167 L 78.333 31.167 78.333 82.000 L 78.333 132.833 85.500 132.833 L 92.667 132.833 92.673 123.292 L 92.680 113.750 93.374 115.167 C 93.755 115.946,94.202 116.729,94.367 116.906 C 94.532 117.084,94.667 117.320,94.667 117.431 C 94.667 117.541,94.853 117.808,95.080 118.024 C 95.308 118.240,95.496 118.492,95.497 118.583 C 95.499 118.675,95.941 119.179,96.480 119.703 C 99.420 122.562,103.078 122.587,105.957 119.769 C 106.529 119.208,106.998 118.660,106.999 118.550 C 106.999 118.440,107.098 118.290,107.218 118.217 C 107.482 118.055,108.167 116.752,108.167 116.412 C 108.167 116.277,108.239 116.167,108.327 116.167 C 108.497 116.167,109.167 114.171,109.167 113.663 C 109.167 113.497,109.239 113.336,109.327 113.306 C 109.554 113.227,109.968 110.487,110.099 108.196 C 110.161 107.126,110.295 106.145,110.397 106.016 C 110.661 105.685,110.664 43.873,110.400 43.702 C 110.299 43.637,110.168 42.822,110.109 41.891 C 109.980 39.873,109.628 37.940,109.265 37.250 C 109.120 36.975,109.002 36.659,109.001 36.547 C 109.000 36.321,108.473 35.130,108.316 35.000 C 108.261 34.954,108.036 34.523,107.817 34.042 C 107.598 33.560,107.368 33.167,107.306 33.167 C 107.244 33.167,107.027 32.897,106.824 32.568 C 106.425 31.922,105.749 31.185,105.311 30.917 C 105.161 30.825,104.674 30.525,104.228 30.251 C 103.248 29.647,100.327 29.450,99.100 29.904 M163.417 29.899 C 161.244 30.331,156.503 33.470,156.500 34.478 C 156.499 34.536,156.281 34.839,156.014 35.152 C 155.746 35.464,155.428 35.914,155.306 36.152 C 155.183 36.389,154.971 36.709,154.833 36.862 C 154.696 37.015,154.436 37.521,154.255 37.987 C 154.074 38.452,153.871 38.833,153.803 38.833 C 153.736 38.833,153.525 39.337,153.335 39.952 C 153.145 40.567,152.932 41.111,152.863 41.160 C 152.699 41.276,152.190 43.486,152.054 44.667 C 151.996 45.171,151.894 45.621,151.826 45.667 C 151.439 45.930,151.004 53.947,151.002 60.875 L 151.000 66.000 157.644 66.000 L 164.289 66.000 164.386 57.125 C 164.499 46.782,164.560 46.289,165.778 45.824 C 167.034 45.343,168.000 47.161,168.000 50.005 C 168.000 50.450,168.075 50.860,168.167 50.917 C 168.373 51.044,168.397 61.274,168.191 61.401 C 168.113 61.450,168.006 62.011,167.952 62.649 C 167.899 63.287,167.735 64.040,167.588 64.323 C 167.316 64.849,164.238 68.000,163.996 68.000 C 163.923 68.000,163.674 68.225,163.442 68.500 C 163.211 68.775,162.971 69.000,162.909 69.000 C 162.847 69.000,162.438 69.300,162.000 69.667 C 161.562 70.033,161.122 70.333,161.022 70.333 C 160.923 70.333,160.718 70.521,160.568 70.750 C 160.418 70.979,160.209 71.167,160.104 71.167 C 159.999 71.167,159.724 71.335,159.493 71.542 C 159.262 71.748,158.608 72.314,158.040 72.800 C 156.891 73.783,154.167 76.503,154.167 76.668 C 154.167 76.726,153.942 77.025,153.667 77.333 C 153.392 77.641,153.167 77.987,153.167 78.101 C 153.167 78.216,153.059 78.417,152.928 78.548 C 152.666 78.810,152.000 80.709,152.000 81.194 C 152.000 81.362,151.934 81.500,151.854 81.500 C 151.173 81.500,150.703 98.380,151.167 106.167 C 151.361 109.417,151.669 112.167,151.840 112.167 C 151.907 112.167,152.013 112.509,152.076 112.927 C 152.239 114.010,152.657 115.557,152.817 115.661 C 152.891 115.710,153.038 116.015,153.144 116.339 C 153.644 117.877,156.236 120.520,157.828 121.117 C 158.243 121.272,158.637 121.478,158.702 121.575 C 158.861 121.808,162.637 121.810,162.798 121.576 C 162.863 121.481,163.241 121.298,163.637 121.171 C 164.033 121.043,164.446 120.820,164.554 120.675 C 164.662 120.530,164.956 120.279,165.208 120.118 C 165.460 119.957,165.667 119.718,165.667 119.585 C 165.667 119.453,165.809 119.269,165.984 119.175 C 166.158 119.082,166.473 118.648,166.683 118.211 C 166.894 117.774,167.157 117.324,167.269 117.211 C 167.380 117.097,167.602 116.610,167.760 116.127 C 167.919 115.645,168.106 115.212,168.176 115.166 C 168.245 115.120,168.378 114.820,168.469 114.500 C 168.597 114.055,168.640 114.656,168.652 117.042 L 168.667 120.167 175.690 120.167 L 182.712 120.167 182.634 87.884 C 182.575 63.480,182.508 55.586,182.361 55.537 C 182.227 55.492,182.166 54.820,182.163 53.361 C 182.157 49.439,181.624 43.000,181.306 43.000 C 181.230 43.000,181.167 42.864,181.167 42.698 C 181.167 42.179,180.484 39.753,180.321 39.694 C 180.236 39.664,180.167 39.546,180.167 39.432 C 180.167 39.089,179.330 37.140,179.073 36.882 C 178.941 36.751,178.833 36.550,178.833 36.437 C 178.833 35.944,175.660 32.000,175.264 32.000 C 175.206 32.000,174.803 31.755,174.368 31.456 C 173.933 31.157,173.241 30.804,172.830 30.671 C 172.419 30.539,172.039 30.367,171.984 30.289 C 171.611 29.756,165.526 29.478,163.417 29.899 M246.424 29.934 C 245.878 30.066,245.391 30.232,245.341 30.303 C 245.291 30.373,244.933 30.533,244.546 30.657 C 244.159 30.782,243.693 31.022,243.511 31.192 C 243.329 31.361,243.137 31.500,243.084 31.500 C 242.659 31.500,239.616 34.467,239.294 35.196 C 239.179 35.455,239.030 35.667,238.963 35.667 C 238.895 35.667,238.679 35.985,238.481 36.375 C 238.283 36.765,238.071 37.121,238.009 37.167 C 237.947 37.212,237.718 37.700,237.501 38.250 C 237.283 38.800,237.012 39.400,236.897 39.583 C 236.782 39.767,236.560 40.442,236.403 41.083 C 236.246 41.725,236.047 42.340,235.961 42.451 C 235.875 42.562,235.853 42.730,235.912 42.826 C 235.971 42.922,235.952 43.000,235.870 43.000 C 235.788 43.000,235.590 43.881,235.430 44.958 C 235.269 46.035,235.060 47.079,234.965 47.278 C 234.870 47.477,234.825 47.869,234.866 48.149 C 234.907 48.429,234.887 48.679,234.821 48.704 C 233.817 49.086,233.980 101.819,234.993 104.083 C 235.075 104.267,235.269 105.167,235.424 106.083 C 235.579 107.000,235.771 107.832,235.851 107.932 C 235.932 108.032,235.950 108.162,235.891 108.220 C 235.833 108.278,235.865 108.421,235.961 108.538 C 236.058 108.654,236.262 109.237,236.414 109.833 C 236.567 110.429,236.828 111.217,236.994 111.583 C 237.161 111.950,237.435 112.587,237.604 113.000 C 237.773 113.412,238.006 113.849,238.122 113.970 C 238.238 114.091,238.333 114.287,238.333 114.404 C 238.333 114.522,238.502 114.804,238.708 115.032 C 238.915 115.260,239.227 115.702,239.403 116.015 C 239.579 116.328,239.860 116.733,240.027 116.917 C 240.916 117.895,241.160 118.132,241.823 118.667 C 242.220 118.987,242.639 119.340,242.753 119.451 C 242.868 119.561,243.289 119.820,243.689 120.025 C 244.089 120.231,244.454 120.448,244.500 120.508 C 244.621 120.667,246.614 121.333,246.967 121.333 C 247.132 121.333,247.360 121.427,247.475 121.542 C 247.752 121.819,253.620 121.841,253.798 121.566 C 253.863 121.464,254.201 121.329,254.548 121.265 C 255.505 121.089,257.193 120.245,258.079 119.500 C 258.970 118.750,260.331 117.259,260.769 116.553 C 260.929 116.295,261.143 116.008,261.245 115.917 C 261.347 115.825,261.606 115.337,261.820 114.833 C 262.034 114.329,262.255 113.879,262.313 113.833 C 262.482 113.698,263.000 112.509,263.000 112.256 C 263.000 112.128,263.097 111.925,263.216 111.804 C 263.424 111.592,264.167 109.441,264.167 109.051 C 264.167 108.946,264.226 108.836,264.299 108.806 C 264.445 108.744,265.167 105.727,265.167 105.177 C 265.167 104.988,265.232 104.833,265.313 104.833 C 265.782 104.833,266.157 98.162,266.162 89.708 L 266.167 82.833 259.417 82.833 L 252.667 82.833 252.667 91.482 C 252.667 99.741,252.509 103.515,252.157 103.639 C 252.071 103.669,252.000 103.809,252.000 103.950 C 252.000 105.300,249.787 106.334,249.414 105.158 C 249.357 104.979,249.244 104.833,249.163 104.833 C 248.569 104.833,248.346 100.120,248.339 87.458 L 248.333 77.500 257.250 77.500 L 266.167 77.500 266.163 68.208 C 266.160 57.758,265.828 49.772,265.347 48.583 C 265.273 48.400,265.052 47.242,264.856 46.010 C 264.660 44.777,264.443 43.727,264.375 43.676 C 264.306 43.625,264.076 42.909,263.863 42.086 C 263.650 41.262,263.416 40.549,263.344 40.502 C 263.271 40.455,263.160 40.229,263.096 40.000 C 262.904 39.306,262.436 38.264,262.211 38.030 C 262.095 37.909,262.000 37.715,262.000 37.599 C 262.000 37.483,261.700 36.960,261.333 36.437 C 260.967 35.913,260.667 35.443,260.667 35.391 C 260.667 35.167,257.436 31.833,257.219 31.833 C 257.133 31.833,256.917 31.702,256.740 31.542 C 256.408 31.242,256.243 31.155,254.667 30.450 C 252.908 29.663,248.647 29.397,246.424 29.934 M312.481 29.897 C 312.149 30.015,311.704 30.274,311.491 30.473 C 311.278 30.671,311.034 30.833,310.949 30.833 C 310.769 30.833,309.501 32.107,309.497 32.292 C 309.496 32.361,309.285 32.654,309.029 32.945 C 308.772 33.236,308.425 33.779,308.256 34.153 C 308.087 34.527,307.892 34.833,307.822 34.833 C 307.751 34.833,307.527 35.340,307.322 35.958 C 307.118 36.577,306.894 37.121,306.825 37.167 C 306.756 37.212,306.527 37.850,306.317 38.583 C 306.107 39.317,305.882 39.954,305.817 40.000 C 305.753 40.046,305.672 40.271,305.638 40.500 C 305.604 40.729,305.606 39.792,305.642 38.417 C 305.678 37.042,305.773 35.892,305.854 35.861 C 305.934 35.831,306.000 34.762,306.000 33.486 L 306.000 31.167 298.917 31.167 L 291.833 31.167 291.833 75.667 L 291.833 120.167 298.917 120.167 L 306.000 120.167 306.008 103.542 C 306.021 78.596,306.272 67.062,306.811 66.668 C 306.874 66.621,307.065 66.133,307.234 65.584 C 307.404 65.034,307.702 64.370,307.897 64.109 C 308.561 63.218,309.640 62.167,309.892 62.167 C 310.030 62.167,310.242 62.068,310.363 61.947 C 310.723 61.588,311.621 61.345,313.018 61.228 L 314.333 61.119 314.333 45.393 L 314.333 29.667 313.708 29.674 C 313.365 29.678,312.812 29.778,312.481 29.897 M329.583 29.744 C 329.492 29.773,328.985 29.891,328.458 30.008 C 327.931 30.124,327.500 30.274,327.500 30.340 C 327.500 30.405,327.050 30.628,326.500 30.833 C 325.950 31.039,325.500 31.275,325.500 31.358 C 325.500 31.441,325.316 31.578,325.092 31.663 C 324.868 31.749,324.564 32.001,324.418 32.225 C 324.271 32.449,323.999 32.672,323.813 32.720 C 323.627 32.769,323.437 32.955,323.390 33.133 C 323.344 33.312,323.087 33.620,322.819 33.817 C 322.552 34.015,322.333 34.283,322.333 34.413 C 322.333 34.544,322.214 34.717,322.069 34.798 C 321.763 34.969,321.197 35.857,320.559 37.167 C 320.313 37.671,320.056 38.121,319.988 38.167 C 319.920 38.213,319.696 38.775,319.490 39.417 C 319.285 40.058,319.059 40.621,318.989 40.668 C 318.920 40.714,318.701 41.464,318.503 42.334 C 318.305 43.205,318.098 44.029,318.042 44.167 C 317.812 44.732,317.183 49.215,317.173 50.361 C 317.170 50.789,317.100 51.164,317.018 51.194 C 316.330 51.452,316.301 101.543,316.988 101.998 C 317.059 102.045,317.169 102.721,317.232 103.500 C 317.390 105.443,317.812 108.189,317.986 108.405 C 318.065 108.503,318.253 109.183,318.403 109.917 C 318.554 110.650,318.811 111.513,318.974 111.833 C 319.138 112.154,319.405 112.848,319.568 113.375 C 319.731 113.902,319.920 114.333,319.989 114.333 C 320.057 114.333,320.214 114.639,320.337 115.012 C 320.460 115.385,320.734 115.854,320.944 116.054 C 321.155 116.253,321.329 116.505,321.330 116.613 C 321.332 116.721,321.521 116.957,321.750 117.137 C 321.979 117.317,322.167 117.542,322.167 117.636 C 322.167 117.867,323.856 119.333,324.122 119.333 C 324.238 119.333,324.333 119.401,324.333 119.485 C 324.333 119.769,326.506 120.831,327.629 121.097 C 328.246 121.242,328.930 121.449,329.150 121.556 C 329.695 121.820,335.631 121.826,335.798 121.562 C 335.863 121.459,336.225 121.323,336.603 121.260 C 337.343 121.136,339.302 120.175,340.191 119.500 C 341.108 118.805,342.167 117.801,342.167 117.628 C 342.167 117.538,342.354 117.317,342.583 117.137 C 342.813 116.957,343.000 116.706,343.000 116.580 C 343.000 116.453,343.106 116.290,343.236 116.217 C 343.625 115.996,345.167 113.092,345.167 112.579 C 345.167 112.444,345.237 112.333,345.324 112.333 C 345.410 112.333,345.653 111.790,345.863 111.125 C 346.073 110.460,346.292 109.879,346.351 109.833 C 346.483 109.729,347.167 106.827,347.167 106.368 C 347.167 106.181,347.237 106.003,347.322 105.972 C 347.534 105.897,347.982 102.562,348.111 100.099 C 348.173 98.934,348.294 98.033,348.400 97.964 C 348.661 97.795,348.661 52.038,348.400 51.869 C 348.300 51.804,348.171 51.033,348.115 50.156 C 347.984 48.103,347.501 45.000,347.312 45.000 C 347.232 45.000,347.167 44.864,347.167 44.698 C 347.167 44.179,346.484 41.753,346.321 41.694 C 346.236 41.664,346.167 41.545,346.167 41.431 C 346.167 41.044,345.470 39.000,345.338 39.000 C 345.266 39.000,345.039 38.550,344.833 38.000 C 344.628 37.450,344.406 37.000,344.340 37.000 C 344.274 37.000,344.127 36.794,344.013 36.542 C 343.515 35.440,341.256 32.948,339.833 31.929 C 339.512 31.700,339.157 31.432,339.043 31.334 C 338.768 31.097,337.364 30.500,337.083 30.500 C 336.961 30.500,336.836 30.425,336.806 30.333 C 336.656 29.884,330.704 29.399,329.583 29.744 M216.289 30.901 C 217.718 31.405,218.277 32.477,218.451 35.047 C 218.505 35.852,218.614 36.551,218.692 36.599 C 218.877 36.713,218.877 51.333,218.691 51.333 C 218.613 51.333,218.506 52.027,218.453 52.875 C 218.339 54.696,218.021 56.169,217.717 56.286 C 217.598 56.331,217.500 56.462,217.500 56.575 C 217.500 56.874,216.989 57.289,216.458 57.422 C 216.206 57.485,216.000 57.603,216.000 57.685 C 216.000 57.766,215.662 57.833,215.250 57.833 L 214.500 57.833 214.500 44.250 L 214.500 30.667 215.062 30.667 C 215.372 30.667,215.924 30.772,216.289 30.901 M22.162 53.129 C 22.165 53.979,22.237 54.804,22.320 54.962 C 22.403 55.120,22.638 59.637,22.843 65.000 C 23.048 70.362,23.269 74.787,23.334 74.833 C 23.400 74.879,23.507 76.323,23.573 78.042 L 23.692 81.167 21.513 81.167 L 19.333 81.167 19.336 79.958 C 19.338 78.836,19.530 74.303,20.020 63.833 C 20.130 61.496,20.270 59.546,20.331 59.500 C 20.393 59.454,20.620 56.023,20.836 51.875 C 21.053 47.727,21.291 44.333,21.365 44.333 C 21.439 44.333,21.500 43.777,21.500 43.097 C 21.500 42.417,21.556 41.723,21.625 41.555 C 21.745 41.262,22.147 49.933,22.162 53.129 M95.534 46.122 C 95.691 46.259,95.870 46.719,95.932 47.144 C 95.995 47.569,96.130 47.970,96.231 48.036 C 96.516 48.219,96.494 102.906,96.208 103.192 C 96.094 103.306,96.000 103.607,96.000 103.861 C 96.000 105.378,94.459 106.293,93.730 105.208 C 92.662 103.618,92.679 104.094,92.678 75.667 C 92.678 52.437,92.757 47.282,93.121 47.013 C 93.192 46.960,93.364 46.695,93.503 46.424 C 93.888 45.671,94.856 45.527,95.534 46.122 M250.864 45.989 C 251.697 46.644,251.984 49.739,251.995 58.208 L 252.000 62.500 250.167 62.500 L 248.333 62.500 248.341 58.625 C 248.351 53.382,248.599 47.367,248.832 46.724 C 249.154 45.831,250.189 45.457,250.864 45.989 M333.599 46.250 C 333.734 46.456,333.891 47.028,333.947 47.521 C 334.004 48.013,334.133 48.470,334.234 48.536 C 334.517 48.720,334.492 102.697,334.208 102.792 C 334.094 102.830,334.000 103.061,333.999 103.306 C 333.995 105.270,332.500 106.431,331.680 105.105 C 331.489 104.797,331.333 104.390,331.333 104.203 C 331.333 104.015,331.255 103.835,331.160 103.803 C 330.491 103.580,330.459 47.784,331.128 47.353 C 331.216 47.297,331.345 47.063,331.415 46.833 C 331.757 45.704,333.020 45.367,333.599 46.250 M168.279 90.458 C 168.218 102.640,168.142 104.045,167.480 105.116 C 166.978 105.928,166.044 105.913,165.480 105.084 C 165.262 104.764,165.035 104.502,164.976 104.501 C 164.223 104.493,164.239 86.790,164.993 85.363 C 165.074 85.209,165.306 84.540,165.508 83.875 C 165.710 83.210,165.927 82.667,165.990 82.667 C 166.054 82.667,166.279 82.235,166.492 81.708 C 166.705 81.181,166.967 80.675,167.076 80.583 C 167.184 80.492,167.450 80.060,167.666 79.625 C 167.882 79.190,168.122 78.833,168.198 78.833 C 168.275 78.833,168.312 84.065,168.279 90.458 " stroke="none" fill="#ec1c24" fill-rule="evenodd">
		</path>
		<path id="path1" d="M0.000 147.917 L 0.000 158.000 189.083 158.000 L 378.167 158.000 378.167 147.917 L 378.167 137.833 189.083 137.833 L 0.000 137.833 0.000 147.917 " stroke="none" fill="#04844c" fill-rule="evenodd">
		</path>
		<path id="path2" d="" stroke="none" fill="#f05038" fill-rule="evenodd">
		</path>
		<path id="path3" d="" stroke="none" fill="#f05038" fill-rule="evenodd">
		</path>
		<path id="path4" d="" stroke="none" fill="#f05038" fill-rule="evenodd">
		</path>
	</g>
</svg>
