<svg id="Capa_1" enable-background="new 0 0 496.738 496.738"  viewBox="0 0 496.738 496.738"  xmlns="http://www.w3.org/2000/svg"><g><path d="m433.474 496.738h-370.21c-7.767 0-14.063-6.296-14.063-14.063v-468.612c0-7.767 6.296-14.063 14.063-14.063h370.21c7.767 0 14.063 6.296 14.063 14.063v468.612c0 7.767-6.296 14.063-14.063 14.063z" fill="#fee97d"/><g fill="#fed402"><path d="m317.452 200.533 30.584-51.072v-17.127h-198.335v17.127l29.551 49.346z"/><path d="m428.236 149.462-101.685 114.859-54.903 65.654v30.97l22.447-7.661 153.442-119.061v-84.761z"/><path d="m333.372 396.749 114.165 13.239v-85.52l-129.322 50.125-14.21 5.732v15.007z"/><path d="m68.437 149.462h-19.236v84.812l153.376 119.01 22.448 7.661v-30.97l-54.903-65.654z"/><path d="m49.201 324.493v85.487l114.1-13.231 29.367-1.417v-15.007l-14.21-5.732z"/></g><g><path d="m393.134 496.738v-44.839c0-6.91-3.125-13.449-8.501-17.79l-51.262-41.39h-169.005l-51.262 41.39c-5.376 4.341-8.501 10.88-8.501 17.79v44.839z" fill="#7ca1b1"/></g><path d="m447.43 93.945-93.945-93.945h-290.221c-7.767 0-14.063 6.296-14.063 14.063v135.398h398.336v-55.516z" fill="#62dbfb"/><path d="m447.537 93.838h-63.426c-16.914 0-30.626-13.712-30.626-30.626v-63.212z" fill="#01d0fb"/><g fill="#fff9e2"><path d="m231.423 43.085c-.026-.068-.053-.138-.082-.206-1.383-3.36-4.624-5.53-8.257-5.53-.003 0-.006 0-.009 0-3.638.003-6.878 2.181-8.255 5.548-.023.057-.046.113-.067.17l-23.679 62.172c-1.474 3.87.468 8.203 4.339 9.678 3.869 1.476 8.204-.468 9.678-4.34l4.057-10.652h27.691l4.012 10.632c1.134 3.003 3.987 4.854 7.019 4.854.879 0 1.775-.156 2.646-.485 3.875-1.462 5.832-5.789 4.369-9.665zm-16.562 41.838 8.197-21.521 8.121 21.521z"/><path d="m169.721 44.49c-.809-3.969-4.198-6.899-8.241-7.128-4.049-.231-7.741 2.302-8.992 6.154-.028.087-.055.173-.08.261l-11.657 40.892-12.087-40.969c-.026-.09-.054-.179-.084-.267-1.291-3.84-5.016-6.341-9.057-6.062-4.042.271-7.4 3.238-8.183 7.303l-11.083 61.408c-.736 4.076 1.973 7.978 6.049 8.713 4.076.732 7.978-1.972 8.713-6.049l6.527-36.165 10.762 36.477c.026.089.054.177.083.265 1.223 3.645 4.619 6.084 8.459 6.084h.045c3.859-.02 7.252-2.498 8.444-6.169.028-.086.054-.173.079-.26l10.39-36.447 6.936 36.292c.777 4.068 4.706 6.746 8.774 5.958 4.069-.777 6.736-4.705 5.959-8.774z"/><path d="m326.551 68.878h-18.864c-4.142 0-7.5 3.357-7.5 7.5s3.358 7.5 7.5 7.5h10.553c-1.947 8.697-7.586 16.529-18.907 16.529-13.25 0-24.03-10.779-24.03-24.029s10.78-24.03 24.03-24.03c4.816 0 9.46 1.418 13.43 4.1 3.433 2.317 8.095 1.416 10.413-2.017 2.319-3.433 1.416-8.095-2.017-10.413-6.459-4.363-14.007-6.67-21.827-6.67-21.521 0-39.03 17.509-39.03 39.03s17.509 39.029 39.03 39.029c20.441 0 34.718-16.05 34.718-39.029.001-4.143-3.357-7.5-7.499-7.5z"/></g><path d="m180.303 257.346-2.277-48.333c-.455-9.656 3.612-18.973 11.003-25.204l1.962-1.655c33.119-27.925 81.565-27.841 114.587.199l1.717 1.458c7.34 6.232 11.373 15.517 10.92 25.134l-2.28 48.4v13.175h-136.412z" fill="#918291"/><path d="m291.12 382.805h-85.977l43.726 113.933z" fill="#fff9e2"/><path d="m206.617 383.205 3.821-35.925 30.981-13.973 45.148 13.75.747 40.417-12.735 9.274-.954.709c-15.05 11.196-35.739 10.905-50.468-.709z" fill="#ffcebf"/><path d="m246.821 396.749c-1.416-1.159-2.737-2.406-3.96-3.728-4.293-4.643-.954-12.086 5.369-12.075h.139c14.02 0 27.191-3.668 38.639-10.066l-.44-23.821-45.148-13.75-30.981 13.973-2.408 22.638-1.413 13.287 16.541 13.543c10.824 8.535 24.864 10.946 37.522 7.187-4.927-1.466-9.639-3.86-13.86-7.188z" fill="#ffb09e"/><path d="m313.589 256.845h-1c-2.236 0-4.395-1.047-5.613-2.923-.089-.138-.186-.272-.288-.402l-13.774-17.47c0-10.657-8.639-19.297-19.297-19.297h-5.852c-4.233 0-8.349 1.392-11.713 3.962l-5.957 4.55c-1.019.778-2.433.778-3.452 0l-5.957-4.55c-3.364-2.57-7.48-3.962-11.713-3.962h-5.852c-10.657 0-19.297 8.64-19.297 19.297l-13.774 17.47c-.102.13-.199.264-.288.402-1.217 1.876-3.376 2.923-5.613 2.923-8.272 0-14.978 6.706-14.978 14.978 0 8.272 6.706 14.978 14.978 14.978h4.677.071v14.671c0 32.846 26.627 59.472 59.472 59.472 32.846 0 59.472-26.627 59.472-59.472v-14.671h1.071 4.677c8.272 0 14.978-6.706 14.978-14.978 0-8.272-6.706-14.978-14.978-14.978z" fill="#ffdfcf"/><g><path d="m219.922 301.473v-14.671l-.035-16.477c-.023-11.146 4.039-21.913 11.42-30.265l3.543-4.009c0-5.861 2.622-11.101 6.747-14.64l-.91-.695c-3.364-2.57-7.479-3.962-11.712-3.962h-5.853c-10.657 0-19.297 8.64-19.297 19.297l-13.774 17.47c-.122.155-.235.316-.339.481-1.11 1.774-2.974 2.919-5.065 2.852-8.744-.283-15.877 6.932-15.457 15.705.385 8.046 7.298 14.243 15.353 14.243h4.284.071v14.671c0 32.846 26.627 59.472 59.472 59.472 5.368 0 10.566-.723 15.513-2.057-25.322-6.825-43.961-29.938-43.961-57.415z" fill="#ffcebf"/></g><path d="m248.869 496.738-38.431-149.458-42.523 37.567c-2.257 1.994-3.549 4.86-3.549 7.872v18.596c0 2.957 2.397 5.354 5.354 5.354h10.954c2.285 0 4.447 1.034 5.881 2.812z" fill="#678d98"/><path d="m130.288 420.234-17.184 13.875c-5.376 4.341-8.501 10.88-8.501 17.79v44.839h49.623v-35.696c0-10.458-4.093-20.501-11.402-27.98z" fill="#678d98"/><path d="m248.869 496.738 37.699-149.68 43.255 37.79c2.257 1.994 3.549 4.86 3.549 7.872v18.596c0 2.957-2.397 5.354-5.354 5.354h-10.954c-2.285 0-4.447 1.034-5.881 2.812z" fill="#678d98"/><path d="m393.134 451.899c0-6.91-3.125-13.449-8.501-17.79l-17.184-13.875-12.536 12.827c-7.31 7.479-11.402 17.522-11.402 27.98v35.696h49.623z" fill="#678d98"/></g></svg>