<svg  viewBox="0 0 13 17"  xmlns="http://www.w3.org/2000/svg">
<path d="M6.28681 8.18713C8.54762 8.18713 10.3804 6.35414 10.3804 4.09357C10.3804 1.83275 8.54762 0 6.28681 0C4.02599 0 2.19324 1.83275 2.19324 4.09357C2.19621 6.35315 4.02723 8.18417 6.28681 8.18713ZM6.28681 1.5915C7.67294 1.5915 8.79679 2.71511 8.79679 4.10149C8.79679 5.48762 7.67294 6.61147 6.28681 6.61147C4.90043 6.61147 3.77682 5.48762 3.77682 4.10149C3.77732 2.71535 4.90067 1.592 6.28681 1.5915Z" />
<path d="M6.28683 9.69963C4.61195 9.68726 3.00436 10.3595 1.83696 11.5604C0.64927 12.7718 0 14.4187 0 16.2082C0.00123716 16.6449 0.35507 16.9988 0.791793 17H11.7819C12.2186 16.9988 12.5724 16.6449 12.5737 16.2082C12.5737 14.4187 11.9244 12.7718 10.7367 11.5604C9.56931 10.3595 7.96197 9.68726 6.28683 9.69963ZM1.63901 15.4164C1.77461 14.3811 2.24127 13.4176 2.96922 12.6689C3.84539 11.7823 5.04026 11.2832 6.28683 11.2832C7.53341 11.2832 8.72828 11.7823 9.60445 12.6689C10.3309 13.4184 10.7976 14.3816 10.9347 15.4164H1.63901Z"/>
</svg>