<svg  viewBox="0 0 20 20" xmlns="http://www.w3.org/2000/svg">
<g clip-path="url(#clip0)">
<path d="M16.6631 0.450507C16.3445 0.450507 16.0862 0.708827 16.0862 1.02742V2.06406C14.3482 0.725545 12.23 0 9.99998 0C7.32889 0 4.81769 1.04019 2.9289 2.9289C1.04015 4.81765 0 7.32893 0 9.99998C0 12.6711 1.04019 15.1824 2.92898 17.0711C3.04163 17.1838 3.18929 17.2401 3.33691 17.2401C3.48452 17.2401 3.63222 17.1838 3.74488 17.0711C3.97015 16.8458 3.97015 16.4806 3.74488 16.2552C2.07402 14.5844 1.15383 12.3629 1.15383 9.99998C1.15383 5.12226 5.12222 1.15386 9.99998 1.15386C11.8472 1.15386 13.6079 1.71625 15.0868 2.75999H14.3554C14.0368 2.75999 13.7785 3.01831 13.7785 3.33691C13.7785 3.6555 14.0368 3.91382 14.3554 3.91382H16.6631C16.6815 3.91382 16.6997 3.91273 16.7177 3.91105C16.7179 3.91105 16.7181 3.91105 16.7183 3.91101C16.7343 3.90948 16.75 3.90698 16.7656 3.90421C16.7684 3.9037 16.7711 3.90347 16.7739 3.90296C16.7891 3.89999 16.804 3.89613 16.8188 3.89198C16.822 3.89109 16.8252 3.89046 16.8284 3.88948C16.8428 3.88519 16.8568 3.88007 16.8707 3.87468C16.8743 3.87331 16.878 3.87214 16.8816 3.8707C16.8953 3.86511 16.9085 3.85874 16.9216 3.85214C16.9254 3.85027 16.9292 3.84866 16.9329 3.84671C16.9466 3.83945 16.9598 3.8314 16.9729 3.82304C16.9757 3.82124 16.9787 3.81968 16.9815 3.81784C17.046 3.77503 17.1014 3.71964 17.1442 3.65511C17.1461 3.6523 17.1476 3.64933 17.1494 3.64648C17.1577 3.63343 17.1657 3.62023 17.1731 3.60656C17.175 3.60281 17.1766 3.59898 17.1785 3.59523C17.1851 3.58214 17.1915 3.56898 17.197 3.55534C17.1985 3.55171 17.1997 3.54804 17.201 3.54437C17.2064 3.5305 17.2115 3.51648 17.2158 3.5021C17.2168 3.49902 17.2173 3.49585 17.2182 3.49277C17.2224 3.47788 17.2263 3.46284 17.2293 3.44749C17.2297 3.44507 17.23 3.44257 17.2304 3.44015C17.2365 3.40656 17.2401 3.37218 17.2401 3.33687V1.02742C17.24 0.708827 16.9817 0.450507 16.6631 0.450507Z" />
<path d="M13.2256 18.8755C13.1354 18.5699 12.8146 18.3954 12.509 18.4855C12.3659 18.5277 12.2203 18.5666 12.0762 18.6013C11.7664 18.6757 11.5756 18.9872 11.65 19.297C11.7136 19.5615 11.9499 19.7393 12.2105 19.7393C12.2551 19.7393 12.3004 19.7341 12.3457 19.7232C12.5089 19.684 12.6737 19.6399 12.8356 19.5921C13.1411 19.502 13.3157 19.1811 13.2256 18.8755Z" />
<path d="M15.4115 17.7367C15.2449 17.4652 14.8897 17.3801 14.6181 17.5467C14.4915 17.6244 14.3611 17.6998 14.2306 17.771C13.9509 17.9237 13.8479 18.2741 14.0005 18.5538C14.1053 18.7458 14.3032 18.8545 14.5074 18.8545C14.6008 18.8545 14.6956 18.8318 14.7833 18.7839C14.9308 18.7034 15.0782 18.618 15.2214 18.5302C15.4931 18.3636 15.5781 18.0084 15.4115 17.7367Z" />
<path d="M19.7224 7.65054C19.683 7.48694 19.6388 7.32218 19.5912 7.16089C19.5008 6.8553 19.1799 6.68093 18.8744 6.77116C18.5688 6.86151 18.3943 7.18245 18.4846 7.48796C18.5268 7.63054 18.5658 7.77612 18.6007 7.92069C18.6643 8.18507 18.9006 8.36268 19.1611 8.36268C19.2058 8.36268 19.2512 8.35741 19.2966 8.34647C19.6063 8.27194 19.797 7.9603 19.7224 7.65054Z" />
<path d="M10.2272 18.8434C10.0786 18.8471 9.92647 18.8471 9.77796 18.8435C9.45952 18.837 9.1948 19.0873 9.18683 19.4059C9.1789 19.7244 9.43069 19.989 9.74925 19.997C9.83222 19.999 9.91655 20.0001 9.99999 20.0001C10.0853 20.0001 10.1715 19.999 10.2563 19.9968C10.5749 19.9888 10.8265 19.7241 10.8185 19.4055C10.8105 19.087 10.545 18.8359 10.2272 18.8434Z" />
<path d="M5.77236 17.7727C5.64158 17.7014 5.51104 17.6259 5.38432 17.5482C5.11272 17.3816 4.75748 17.4668 4.59092 17.7384C4.42436 18.01 4.50955 18.3652 4.78115 18.5318C4.92455 18.6197 5.07225 18.7052 5.22018 18.7858C5.30787 18.8336 5.40244 18.8562 5.49576 18.8562C5.7001 18.8562 5.89815 18.7474 6.00283 18.5553C6.15533 18.2755 6.05209 17.9251 5.77236 17.7727Z" />
<path d="M7.92797 18.6024C7.78305 18.5676 7.63727 18.5287 7.49477 18.4866C7.18918 18.3966 6.8684 18.5713 6.77832 18.8769C6.68824 19.1826 6.86301 19.5033 7.16863 19.5934C7.32988 19.6409 7.4948 19.6849 7.65875 19.7243C7.70398 19.7352 7.7493 19.7404 7.79383 19.7404C8.05445 19.7404 8.29086 19.5625 8.35437 19.298C8.42871 18.9881 8.23781 18.6768 7.92797 18.6024Z" />
<path d="M19.2985 11.6419C18.9886 11.5677 18.6773 11.7587 18.6031 12.0686C18.5684 12.2132 18.5296 12.3589 18.4876 12.5016C18.3977 12.8072 18.5725 13.1279 18.8782 13.2178C18.9325 13.2339 18.9873 13.2415 19.0413 13.2415C19.2906 13.2415 19.5206 13.0786 19.5945 12.8273C19.642 12.6659 19.686 12.501 19.7252 12.3373C19.7994 12.0274 19.6083 11.7161 19.2985 11.6419Z" />
<path d="M17.2294 16.0716C16.9984 15.8522 16.6332 15.8615 16.4138 16.0925C16.3112 16.2004 16.2046 16.3071 16.0967 16.4097C15.8659 16.6293 15.8568 16.9945 16.0764 17.2254C16.1899 17.3445 16.342 17.4046 16.4945 17.4046C16.6374 17.4046 16.7805 17.3518 16.8921 17.2456C17.0139 17.1297 17.1344 17.0092 17.2503 16.8872C17.4697 16.6563 17.4604 16.2911 17.2294 16.0716Z" />
<path d="M18.7819 5.21331C18.7014 5.06585 18.6158 4.91831 18.5278 4.77479C18.3612 4.50327 18.0058 4.41823 17.7343 4.58495C17.4627 4.75163 17.3777 5.1069 17.5444 5.37847C17.6224 5.50542 17.698 5.63593 17.7692 5.7664C17.874 5.95827 18.0719 6.06691 18.2761 6.06691C18.3695 6.06691 18.4644 6.04413 18.5521 5.99616C18.8318 5.84343 18.9346 5.49296 18.7819 5.21331Z" />
<path d="M18.557 13.9934C18.2772 13.841 17.9268 13.9443 17.7744 14.2242C17.7032 14.3548 17.6277 14.4856 17.5498 14.6128C17.3834 14.8845 17.4689 15.2397 17.7406 15.4061C17.8346 15.4636 17.9386 15.4911 18.0413 15.4911C18.2354 15.4911 18.4251 15.393 18.5339 15.2153C18.6219 15.0715 18.7073 14.9237 18.7877 14.776C18.9402 14.4962 18.8368 14.1458 18.557 13.9934Z" />
<path d="M19.9967 9.74103C19.9885 9.42248 19.7231 9.17275 19.4053 9.179C19.0867 9.18713 18.8351 9.45189 18.8432 9.77041C18.8451 9.84639 18.8461 9.92361 18.8461 10.0001C18.8461 10.073 18.8452 10.1468 18.8435 10.2194C18.8357 10.5379 19.0877 10.8024 19.4063 10.8101C19.411 10.8102 19.4158 10.8103 19.4205 10.8103C19.7326 10.8103 19.9894 10.5611 19.997 10.2473C19.9989 10.1654 20 10.0822 20 10C19.9999 9.91389 19.9988 9.82674 19.9967 9.74103Z" />
<path d="M16.6889 10.3139C16.0781 9.26575 15.1925 8.40337 14.1345 7.78208C14.3879 7.59341 14.4428 7.23564 14.2563 6.97982C14.0686 6.72232 13.7077 6.66572 13.4502 6.85341L12.952 7.21654C12.7497 7.13962 12.5434 7.07033 12.3334 7.00931L12.5451 6.55072C12.6786 6.26146 12.5523 5.91865 12.263 5.7851C11.9738 5.65154 11.631 5.77783 11.4974 6.06709L11.1764 6.76236C10.9784 6.73459 10.7785 6.71341 10.5767 6.6997V6.04787C10.5767 5.72924 10.3184 5.47095 9.99979 5.47095C9.6812 5.47095 9.42288 5.72928 9.42288 6.04787V6.6997C9.22108 6.71341 9.02116 6.73459 8.82315 6.76236L8.50218 6.06709C8.36858 5.77783 8.02585 5.65154 7.73655 5.7851C7.44726 5.91869 7.32097 6.26142 7.45452 6.55072L7.6662 7.00931C7.45624 7.07033 7.24995 7.13959 7.04761 7.21654L6.54937 6.85341C6.29191 6.66568 5.93097 6.72232 5.74332 6.97982C5.55683 7.23568 5.61179 7.59345 5.86507 7.78208C4.80711 8.40341 3.92148 9.26579 3.31066 10.3139C3.20602 10.4934 3.20602 10.7153 3.31066 10.8949C4.61718 13.1366 7.18027 14.5292 9.99964 14.5292C12.819 14.5292 15.3821 13.1366 16.6886 10.8949C16.7936 10.7153 16.7936 10.4934 16.6889 10.3139ZM9.99995 13.3754C7.71562 13.3754 5.6373 12.3219 4.48937 10.6043C5.12984 9.64606 6.06011 8.89486 7.15398 8.41767C7.18105 8.40845 7.20749 8.39724 7.23308 8.384C7.66816 8.20072 8.12827 8.06064 8.60577 7.96767C8.60585 7.96767 8.60593 7.96763 8.606 7.96763C9.05741 7.87974 9.52409 7.83341 9.99991 7.83341C10.4757 7.83341 10.9424 7.87974 11.3938 7.96763C11.3939 7.96763 11.394 7.96767 11.394 7.96767C11.8715 8.06068 12.3316 8.20076 12.7666 8.38396C12.7923 8.39724 12.8187 8.40845 12.8459 8.41771C13.9397 8.89489 14.87 9.64614 15.5104 10.6044C14.3626 12.3219 12.2843 13.3754 9.99995 13.3754Z" />
<path d="M9.99995 8.51131C8.84589 8.51131 7.90698 9.45018 7.90698 10.6043C7.90698 11.7584 8.84585 12.6973 9.99995 12.6973C11.1541 12.6973 12.0929 11.7584 12.0929 10.6043C12.0929 9.45018 11.154 8.51131 9.99995 8.51131ZM9.99995 11.5434C9.4821 11.5434 9.06085 11.1221 9.06085 10.6043C9.06085 10.0865 9.48214 9.66518 9.99995 9.66518C10.5178 9.66518 10.9391 10.0864 10.9391 10.6043C10.9391 11.1221 10.5178 11.5434 9.99995 11.5434Z" />
</g>
<defs>
<clipPath id="clip0">
<rect width="20" height="20" fill="white"/>
</clipPath>
</defs>
</svg>
