<svg  viewBox="0 0 20 20"  xmlns="http://www.w3.org/2000/svg">
<path d="M10 12.6172C10.2156 12.6172 10.3906 12.4422 10.3906 12.2266C10.3906 12.011 10.2156 11.8359 10 11.8359C9.78439 11.8359 9.60938 12.011 9.60938 12.2266C9.60938 12.4422 9.78439 12.6172 10 12.6172Z" />
<path d="M12.1361 9.65775C13.0424 9.10706 13.7927 8.33191 14.306 7.41592C14.8111 6.51459 15.0781 5.49469 15.0781 4.4664V2.27661C15.5328 2.11533 15.8594 1.68106 15.8594 1.17188V0.390625C15.8594 0.174866 15.6845 0 15.4688 0H4.53125C4.31549 0 4.14062 0.174866 4.14062 0.390625V1.17188C4.14062 1.68106 4.46716 2.11533 4.92188 2.27661V4.4664C4.92188 5.49469 5.1889 6.51459 5.69397 7.41592C6.20728 8.33191 6.9577 9.10721 7.86407 9.65775C7.97989 9.72809 8.04916 9.85611 8.04916 10C8.04916 10.144 7.97989 10.2719 7.86407 10.3424C6.9577 10.8929 6.20728 11.6681 5.69397 12.5841C5.1889 13.4854 4.92188 14.5053 4.92188 15.5336V17.7234C4.46716 17.8847 4.14062 18.3189 4.14062 18.8281V19.6094C4.14062 19.8251 4.31549 20 4.53125 20H15.4688C15.6845 20 15.8594 19.8251 15.8594 19.6094V18.8281C15.8594 18.3189 15.5328 17.8847 15.0781 17.7234V15.5336C15.0781 14.5053 14.8111 13.4854 14.306 12.5841C13.7927 11.6681 13.0423 10.8928 12.1359 10.3423C12.0201 10.2719 11.9508 10.1439 11.9508 10C11.9508 9.85596 12.0201 9.72809 12.1361 9.65775ZM4.92188 0.78125H15.0781V1.17188C15.0781 1.38733 14.903 1.5625 14.6875 1.5625H5.3125C5.09705 1.5625 4.92188 1.38733 4.92188 1.17188V0.78125ZM15.0781 19.2188H4.92188V18.8281C4.92188 18.6127 5.09705 18.4375 5.3125 18.4375H14.6875C14.903 18.4375 15.0781 18.6127 15.0781 18.8281V19.2188ZM11.7305 11.01C13.3374 11.9862 14.2969 13.6774 14.2969 15.5336V17.6562H5.70312V15.5336C5.70312 13.6774 6.6626 11.9862 8.2695 11.01C8.62076 10.7968 8.83041 10.4192 8.83041 10C8.83041 9.58084 8.62076 9.20319 8.2695 8.99002C6.6626 8.01376 5.70312 6.32263 5.70312 4.4664V2.34375H14.2969V4.4664C14.2969 6.32263 13.3374 8.01376 11.7305 8.99002C11.3792 9.20319 11.1696 9.58084 11.1696 10C11.1696 10.4192 11.3792 10.7968 11.7305 11.01Z" />
<path d="M10.3113 13.5336C10.2376 13.4354 10.1219 13.3774 9.99908 13.3774C9.99908 13.3774 9.99893 13.3774 9.99878 13.3774C9.8761 13.3774 9.76044 13.4351 9.68674 13.533C9.53949 13.7289 9.35608 13.8954 9.14169 14.0283C8.69431 14.2978 8.29468 14.4662 7.94189 14.615C7.15973 14.9449 6.48438 15.2298 6.48438 16.3126V16.4844C6.48438 16.7001 6.65924 16.875 6.875 16.875H13.125C13.3408 16.875 13.5156 16.7001 13.5156 16.4844V16.3126C13.5156 15.2304 12.8386 14.9443 12.0547 14.6129C11.6991 14.4624 11.2959 14.2921 10.8429 14.0195C10.6352 13.8905 10.4564 13.727 10.3113 13.5336ZM12.719 16.0938H7.28088C7.34039 15.7327 7.58652 15.6128 8.24554 15.3349C8.60428 15.1836 9.0506 14.9954 9.54697 14.6964C9.54819 14.6954 9.54956 14.6947 9.55078 14.6939C9.71283 14.5937 9.86252 14.4791 9.99847 14.3513C10.1311 14.476 10.2763 14.5874 10.4333 14.6848C10.4347 14.6855 10.4361 14.6864 10.4375 14.6872C10.9392 14.9893 11.389 15.1796 11.7505 15.3325C12.4123 15.6122 12.6593 15.7327 12.719 16.0938Z" />
<path d="M13.5156 4.46861V3.74992C13.5156 3.60786 13.4386 3.47709 13.3144 3.40827C13.1902 3.33931 13.0385 3.34342 12.9179 3.41865C12.0421 3.96614 11.0332 4.25544 10 4.25544C8.96698 4.25544 7.95792 3.96614 7.08206 3.41865C6.96152 3.34342 6.80984 3.33946 6.68564 3.40827C6.56143 3.47709 6.48438 3.60786 6.48438 3.74992V4.46861C6.48438 5.14427 6.7453 5.87151 7.23877 6.57158C7.71698 7.24999 8.38028 7.85591 9.1571 8.32421C9.31488 8.42232 9.46945 8.56148 9.60938 8.72963V10.664C9.60938 10.8798 9.78424 11.0546 10 11.0546C10.2156 11.0546 10.3906 10.8798 10.3906 10.664V8.7304C10.5331 8.56026 10.6929 8.4179 10.8583 8.31536C12.4478 7.35665 13.5156 5.81108 13.5156 4.46861ZM10.453 7.64733C10.4518 7.64824 10.4504 7.64885 10.4492 7.64977C10.2934 7.74605 10.1425 7.86522 10.0014 8.00225C9.8645 7.86827 9.71909 7.75338 9.56665 7.65892C9.56528 7.65801 9.5639 7.65725 9.56253 7.65633C8.18863 6.82884 7.26562 5.54787 7.26562 4.46861V4.41108C8.11569 4.82185 9.04892 5.0367 10 5.0367C10.9511 5.0367 11.8843 4.82185 12.7344 4.41108V4.46861C12.7344 5.53093 11.7963 6.838 10.453 7.64733Z" />
</svg>
